<svg xmlns="http://www.w3.org/2000/svg" version="1.1" xmlns:xlink="http://www.w3.org/1999/xlink" viewBox="0 0 19.403055691010973 9.899860519770666"><g transform="matrix(0.8021426712806656,0,0,0.8021426712806656,2.898898362575867,4.2235758931689755)"><g transform="matrix(1,0,0,1,0,0)" clip-path="url(#SvgjsClipPath64830)"><g clip-path="url(#SvgjsClipPath648287b7801ac-4d09-4995-a137-1fb70be27329)"><path d=" M 16.244434380834615 4.503925358784064 C 16.244434380834615 4.576035933634627 15.328384125756232 4.634493092769432 14.198378640313893 4.634493092769432 C 13.068373154871551 4.634493092769432 12.152322899793166 4.576035933634627 12.152322899793166 4.503925358784064 C 12.152322899793166 4.4318147839335005 13.068373154871551 4.373357624798697 14.198378640313893 4.373357624798697 C 15.328384125756232 4.373357624798697 16.244434380834615 4.4318147839335005 16.244434380834615 4.503925358784064 Z" fill="#a5b2ba" transform="matrix(1,0,0,1,0,0)" fill-rule="nonzero"></path></g><g clip-path="url(#SvgjsClipPath648287b7801ac-4d09-4995-a137-1fb70be27329)"><path d=" M 15.232534442448006 0.9251824681850866 C 15.41206507667789 0.8969917074382456 15.597530607907107 0.8628660496920695 15.785963587635992 0.8228054949465591 L 15.553018880412097 -0.5644766786479867 L 14.984752492725773 -0.5481557118998155 L 15.232534442448006 0.9251824681850866 Z" fill="#ff6b00" transform="matrix(1,0,0,1,0,0)" fill-rule="nonzero"></path></g><g clip-path="url(#SvgjsClipPath648287b7801ac-4d09-4995-a137-1fb70be27329)"><path d=" M 11.584056512106844 -0.45319735991045684 L 11.781391837334732 0.717461073208363 C 11.971308541313451 0.7782937674515469 12.170127590791171 0.8317078404455605 12.37933271001773 0.8777032921904069 L 12.152322899793166 -0.4695183266586276 L 11.584056512106844 -0.45319735991045684 Z" fill="#ff6b00" transform="matrix(1,0,0,1,0,0)" fill-rule="nonzero"></path></g><g clip-path="url(#SvgjsClipPath648287b7801ac-4d09-4995-a137-1fb70be27329)"><path d=" M 11.981694611062286 -1.4799345407954028 C 11.953503850315446 -1.6475953810266153 12.06626689330281 -1.8048701515089918 12.232444009284189 -1.8330609122558328 L 14.39571396554178 -2.198057077714932 C 14.563374805772991 -2.2262478384617737 14.720649576255369 -2.1134847954744096 14.74884033700221 -1.9473076794930306 L 14.913533728733753 -0.972500847352264 L 15.481800116420075 -0.9888218141004352 L 15.284464791192189 -2.1624476957189223 C 15.211762302950337 -2.5942114524205397 14.802254409996225 -2.8850214053879526 14.370490653294606 -2.8123189171460994 L 12.055880823553975 -2.4220994394398265 C 11.624117066852357 -2.3493969511979733 11.333307113884945 -1.9398890582438613 11.406009602126797 -1.5081253015422438 L 11.512837748114826 -0.8745750468632372 L 12.081104135801148 -0.8908960136114081 L 11.981694611062286 -1.4799345407954028 Z M 13.106357592436261 -2.422099439439827 L 13.368976784656832 -2.4666111669348387 C 13.401618718153173 -2.472546063934174 13.431293203149849 -2.450290200186668 13.437228100149184 -2.4191319909401594 L 13.46690258514586 -2.245536253709612 C 13.472837482145195 -2.2128943202132696 13.450581618397688 -2.183219835216595 13.41942340915118 -2.1772849382172597 L 13.156804216930608 -2.132773210722248 C 13.124162283434266 -2.1268383137229128 13.09448779843759 -2.149094177470419 13.088552901438257 -2.1802523867169272 L 13.058878416441582 -2.3538481239474747 C 13.052943519442247 -2.386490057443817 13.075199383189752 -2.416164542440492 13.106357592436261 -2.422099439439827 Z" fill="#ff6b00" transform="matrix(1,0,0,1,0,0)" fill-rule="nonzero"></path></g><g clip-path="url(#SvgjsClipPath648287b7801ac-4d09-4995-a137-1fb70be27329)"><path d=" M 15.785963587635992 0.8228054949465591 C 15.597530607907107 0.8628660496920695 15.41206507667789 0.8969917074382456 15.23253444244801 0.9251824681850866 L 15.40761390392839 1.9667568915683709 C 15.43580466467523 2.134417731799583 15.323041621687864 2.291692502281959 15.156864505706487 2.319883263028801 L 12.993594549448897 2.6848794284879003 C 12.825933709217685 2.7130701892347404 12.668658938735309 2.6003071462473772 12.640468177988467 2.4341300302659987 L 12.37933271001773 0.8791870164402416 C 12.170127590791171 0.8346752889452289 11.971308541313451 0.7797774917013807 11.781391837334732 0.7189447974581973 L 12.10632744804832 2.6492700464918912 C 12.131550760295493 2.7961587472254315 12.19386717878851 2.9252427569609663 12.28437435802837 3.032070902948995 L 13.949112966341824 2.70861901648524 C 14.021815454583676 2.693781773986903 14.09451794282553 2.7190050862340773 14.141997118820209 2.769451710728424 L 14.52776542377698 2.7041678437357395 C 14.560407357273323 2.698232946736406 14.591565566519833 2.720488810483911 14.597500463519168 2.7546144682300864 C 14.603435360518503 2.7872564017264287 14.581179496770996 2.8184146109729373 14.54705383902482 2.8243495079722725 L 14.198378640313893 2.883698477965622 C 14.21766705556173 2.996461520952986 14.141997118820209 3.104773391190849 14.029234075832846 3.1270292549383547 L 13.889763996348474 3.153736291435362 L 15.333427691436704 2.9104055144626293 C 15.76519144813832 2.8377030262207765 16.056001401105732 2.4281951332666636 15.98329891286388 1.9964313765650465 L 15.785963587635992 0.8228054949465591 Z" fill="#48bfcd" transform="matrix(1,0,0,1,0,0)" fill-rule="nonzero"></path></g><g clip-path="url(#SvgjsClipPath648287b7801ac-4d09-4995-a137-1fb70be27329)"><path d=" M 13.770942844695224 3.267007391161657 C 13.967499309364001 3.286203103795564 14.103788541392646 3.537799761064662 14.075353398611298 3.828964316611357 C 14.046918255829949 4.120128872158052 13.86452655769186 4.340603136339261 13.667970093023083 4.321407423705354 C 13.471413628354307 4.302211711071445 13.33512439632566 4.050615053802348 13.36355953910701 3.7594504982556542 C 13.39199468188836 3.468285942708959 13.574386380026448 3.2478116785277487 13.770942844695224 3.267007391161657 Z" fill="#48bfcd" transform="matrix(1,0,0,1,0,0)" fill-rule="nonzero"></path></g><g clip-path="url(#SvgjsClipPath648287b7801ac-4d09-4995-a137-1fb70be27329)"><path d=" M 14.920616912275223 3.0786948726306576 C 15.082918723350272 3.094545531996918 15.195442063399337 3.3024383355166225 15.171944854791061 3.543036497663049 C 15.148447646182785 3.783634659809478 14.997827811529861 3.9658284720540347 14.835526000454813 3.949977812687773 C 14.673224189379766 3.9341271533215125 14.560700849330697 3.726234349801811 14.584198057938973 3.485636187655382 C 14.60769526654725 3.2450380255089546 14.758315101200175 3.062844213264396 14.920616912275223 3.0786948726306576 Z" fill="#48bfcd" transform="matrix(1,0,0,1,0,0)" fill-rule="nonzero"></path></g><g clip-path="url(#SvgjsClipPath648287b7801ac-4d09-4995-a137-1fb70be27329)"><path d=" M 14.199862364563725 2.8822147537157865 L 13.910536135846147 2.9311776539603005 C 13.90756868734648 2.9311776539603005 13.903117514596978 2.9326613782101343 13.90015006609731 2.9326613782101343 C 13.870475581100637 2.9326613782101343 13.845252268853462 2.911889238712462 13.840801096103961 2.8822147537157874 C 13.834866199104628 2.849572820219446 13.857122062852133 2.8184146109729364 13.891247720598308 2.812479713973603 L 14.144964567319878 2.769451710728424 C 14.096001667075363 2.7204888104839102 14.024782903083345 2.6952654982367377 13.952080414841491 2.70861901648524 L 12.287341806528037 3.032070902948995 L 11.50245167836599 3.1834107764320367 C 11.408977050626463 3.2012154674300413 11.314018698637105 3.181927052182202 11.236865037645751 3.127029254938353 C 11.158227652404562 3.0736151819443385 11.106297303660382 2.992010348203483 11.091460061162044 2.8970519962141235 L 10.638924164962754 0.2129948282648919 C 10.469779600481708 0.11655275202569859 10.313988554249166 0.014175778787171023 10.168583577765459 -0.08968491870119122 C 10.168583577765459 -0.045173191206178576 10.171551026265126 -0.002145187961000161 10.178969647514295 0.042366539534011594 L 10.671566098459095 2.968270760206144 C 10.707175480455106 3.175992155182867 10.821422247692304 3.3570065136625824 10.995017984922852 3.4757044536492825 C 11.127069443158053 3.5662116328891407 11.278409316641095 3.61369080888382 11.434200362873638 3.61369080888382 C 11.483163263118152 3.61369080888382 11.5336098876125 3.6092396361343186 11.584056512106846 3.598853566385483 L 13.891247720598308 3.152252567185528 L 14.03071780008268 3.12554553068852 C 14.143480843070044 3.103289666941015 14.21766705556173 2.9949777967031515 14.199862364563725 2.8822147537157865 Z" fill="#48bfcd" transform="matrix(1,0,0,1,0,0)" fill-rule="nonzero"></path></g><g clip-path="url(#SvgjsClipPath648287b7801ac-4d09-4995-a137-1fb70be27329)"><path d=" M 10.59737988596741 -0.02588477595833938 C 10.579575194969404 -0.12677802494703405 10.60628223146641 -0.22618754968589405 10.671566098459095 -0.3063086591769162 C 10.73684996545178 -0.3864297686679379 10.828840868941471 -0.4309414961629505 10.932701566429834 -0.43390894466261765 L 11.584056512106844 -0.45171363566062217 L 12.152322899793166 -0.46803460240879335 L 14.984752492725773 -0.5481557118998155 L 15.553018880412097 -0.5644766786479862 L 15.784479863386156 -0.5704115756473218 C 16.073806092103737 -0.5778301968964903 16.33197411157481 -0.7677469008752089 16.426932463564167 -1.0392684385947821 L 16.949203399505645 -2.528927585427856 C 16.98778023000132 -2.640206904165386 16.929914984257806 -2.7618722926517525 16.818635665520276 -2.80044912314743 C 16.707356346782746 -2.839025953643107 16.585690958296375 -2.7811607078995912 16.5471141278007 -2.669881389162061 L 16.024843191859222 -1.1817059665788219 C 15.98775008561338 -1.0748778205907923 15.88537311237485 -1.0006916080991057 15.771126345137652 -0.9962404353496044 L 15.480316392170241 -0.9873380898506021 L 14.91205000448392 -0.9710171231024309 L 12.081104135801148 -0.8923797378612426 L 11.512837748114826 -0.8760587711130714 L 10.920831772431164 -0.8597378043649004 C 10.69678941070627 -0.8538029073655655 10.486100567229878 -0.749942209877204 10.34366303924584 -0.576346472646657 C 10.229416272008642 -0.43687639316228566 10.168583577765459 -0.264764380181572 10.167099853515625 -0.0867174702015232 C 10.312504829999332 0.017143227286838147 10.469779600481708 0.11803647627553282 10.63744044071292 0.21596227676455904 L 10.59737988596741 -0.02588477595833938 Z" fill="#ff6b00" transform="matrix(1,0,0,1,0,0)" fill-rule="nonzero"></path></g><g clip-path="url(#SvgjsClipPath648287b7801ac-4d09-4995-a137-1fb70be27329)"><path d=" M 13.839317371854127 2.8807310294659536 C 13.843768544603629 2.9104055144626284 13.870475581100637 2.9311776539603005 13.898666341847477 2.9311776539603005 C 13.901633790347145 2.9311776539603005 13.906084963096646 2.9311776539603005 13.909052411596312 2.929693929710466 L 14.198378640313893 2.8807310294659536 L 14.54705383902482 2.821382059472603 C 14.579695772521163 2.815447162473269 14.601951636268668 2.7842889532267603 14.597500463519168 2.751647019730418 C 14.591565566519833 2.7190050862340756 14.560407357273323 2.696749222486569 14.52776542377698 2.701200395236071 L 14.141997118820209 2.766484262228755 L 13.88828027209864 2.809512265473933 C 13.855638338602299 2.8169308867231018 13.833382474854792 2.8480890959696112 13.839317371854127 2.8807310294659536 Z" fill="#eda0a0" transform="matrix(1,0,0,1,0,0)" fill-rule="nonzero"></path></g><g clip-path="url(#SvgjsClipPath648287b7801ac-4d09-4995-a137-1fb70be27329)"><path d=" M 13.087069177188422 -2.1802523867169272 C 13.093004074187757 -2.1476104532205853 13.122678559184433 -2.1268383137229128 13.155320492680774 -2.132773210722248 L 13.417939684901345 -2.1772849382172597 C 13.450581618397688 -2.183219835216595 13.471353757895361 -2.2128943202132696 13.465418860896026 -2.245536253709612 L 13.43574437589935 -2.4191319909401594 C 13.429809478900015 -2.4517739244365013 13.400134993903341 -2.472546063934174 13.367493060406998 -2.4666111669348387 L 13.104873868186427 -2.422099439439827 C 13.072231934690084 -2.416164542440492 13.051459795192411 -2.386490057443817 13.057394692191748 -2.3538481239474747 L 13.087069177188422 -2.1802523867169272 Z" fill="#eda0a0" transform="matrix(1,0,0,1,0,0)" fill-rule="nonzero"></path></g></g><g><path d=" M 5.784773701171874 0.7223040000000001 Q 5.784773701171874 0.730512 5.780669701171874 0.730512 Q 5.738261701171874 0.730512 5.715005701171874 0.729144 L 5.624717701171874 0.7277760000000001 L 5.5330617011718735 0.729144 Q 5.5098057011718735 0.730512 5.4673977011718735 0.730512 Q 5.463293701171874 0.730512 5.463293701171874 0.7223040000000001 Q 5.463293701171874 0.7140960000000001 5.4673977011718735 0.7140960000000001 Q 5.505701701171874 0.7140960000000001 5.523485701171873 0.707256 Q 5.541269701171873 0.700416 5.548109701171874 0.6805800000000001 Q 5.554949701171873 0.660744 5.554949701171873 0.619704 L 5.554949701171873 0.42544800000000005 L 5.225261701171873 0.42544800000000005 L 5.225261701171873 0.619704 Q 5.225261701171873 0.660744 5.232101701171874 0.6798960000000001 Q 5.238941701171873 0.699048 5.2574097011718735 0.7065720000000001 Q 5.275877701171874 0.7140960000000001 5.314181701171874 0.7140960000000001 Q 5.316917701171874 0.7140960000000001 5.316917701171874 0.7223040000000001 Q 5.316917701171874 0.730512 5.314181701171874 0.730512 Q 5.271773701171874 0.730512 5.248517701171873 0.729144 L 5.156861701171874 0.7277760000000001 L 5.067941701171874 0.729144 Q 5.0433177011718735 0.730512 4.999541701171873 0.730512 Q 4.996805701171874 0.730512 4.996805701171874 0.7223040000000001 Q 4.996805701171874 0.7140960000000001 4.999541701171873 0.7140960000000001 Q 5.039213701171874 0.7140960000000001 5.057681701171873 0.707256 Q 5.0761497011718735 0.700416 5.082989701171874 0.6805800000000001 Q 5.089829701171873 0.660744 5.089829701171873 0.619704 L 5.089829701171873 0.20109600000000005 Q 5.089829701171873 0.16005599999999998 5.082989701171874 0.14090400000000003 Q 5.0761497011718735 0.12175199999999997 5.057681701171873 0.114228 Q 5.039213701171874 0.10670400000000002 5.002277701171874 0.10670400000000002 Q 4.998173701171874 0.10670400000000002 4.998173701171874 0.09849600000000003 Q 4.998173701171874 0.09028800000000003 5.002277701171874 0.09028800000000003 L 5.067941701171874 0.09165599999999996 Q 5.122661701171873 0.09439200000000003 5.156861701171874 0.09439200000000003 Q 5.1937977011718734 0.09439200000000003 5.248517701171873 0.09165599999999996 L 5.314181701171874 0.09028800000000003 Q 5.316917701171874 0.09028800000000003 5.316917701171874 0.09849600000000003 Q 5.316917701171874 0.10670400000000002 5.314181701171874 0.10670400000000002 Q 5.259461701171873 0.10670400000000002 5.242361701171873 0.12585599999999997 Q 5.225261701171873 0.14500800000000003 5.225261701171873 0.203832 L 5.225261701171873 0.38988 L 5.554949701171873 0.38988 L 5.554949701171873 0.203832 Q 5.554949701171873 0.16279200000000005 5.548109701171874 0.14295599999999997 Q 5.541269701171873 0.12312000000000001 5.523485701171873 0.11491200000000001 Q 5.505701701171874 0.10670400000000002 5.4673977011718735 0.10670400000000002 Q 5.463293701171874 0.10670400000000002 5.463293701171874 0.09849600000000003 Q 5.463293701171874 0.09028800000000003 5.4673977011718735 0.09028800000000003 L 5.5330617011718735 0.09165599999999996 Q 5.587781701171874 0.09439200000000003 5.624717701171874 0.09439200000000003 Q 5.657549701171874 0.09439200000000003 5.715005701171874 0.09165599999999996 L 5.780669701171874 0.09028800000000003 Q 5.784773701171874 0.09028800000000003 5.784773701171874 0.09849600000000003 Q 5.784773701171874 0.10670400000000002 5.780669701171874 0.10670400000000002 Q 5.742365701171874 0.10670400000000002 5.7238977011718735 0.114228 Q 5.705429701171873 0.12175199999999997 5.698589701171874 0.14090400000000003 Q 5.691749701171873 0.16005599999999998 5.691749701171873 0.20109600000000005 L 5.691749701171873 0.619704 Q 5.691749701171873 0.660744 5.698589701171874 0.6805800000000001 Q 5.705429701171873 0.700416 5.723213701171874 0.707256 Q 5.740997701171874 0.7140960000000001 5.780669701171874 0.7140960000000001 Q 5.784773701171874 0.7140960000000001 5.784773701171874 0.7223040000000001 M 6.530359751953124 0.09849600000000003 Q 6.530359751953124 0.10670400000000002 6.527623751953123 0.10670400000000002 Q 6.486583751953123 0.10670400000000002 6.453067751953123 0.139536 Q 6.419551751953123 0.17236799999999997 6.400399751953123 0.22982400000000003 L 6.207511751953123 0.729144 Q 6.174679751953123 0.819432 6.125431751953124 0.8892 Q 6.076183751953123 0.958968 6.022831751953123 0.9863280000000001 Q 6.014623751953123 0.9918 5.994787751953123 0.976068 Q 5.974951751953123 0.9603360000000001 5.962639751953123 0.93708 Q 5.948959751953123 0.9056160000000001 5.948959751953123 0.8796240000000001 Q 5.948959751953123 0.856368 5.9599037519531235 0.8536320000000001 Q 6.036511751953123 0.8426880000000001 6.090547751953123 0.814644 Q 6.144583751953123 0.7866000000000001 6.176047751953123 0.7277760000000001 L 5.924335751953123 0.203832 Q 5.896975751953123 0.14637600000000006 5.876455751953123 0.12653999999999999 Q 5.855935751953123 0.10670400000000002 5.820367751953123 0.10670400000000002 Q 5.816263751953123 0.10670400000000002 5.816263751953123 0.09849600000000003 Q 5.816263751953123 0.09028800000000003 5.820367751953123 0.09028800000000003 L 5.880559751953124 0.09165599999999996 Q 5.932543751953123 0.09439200000000003 5.980423751953123 0.09439200000000003 Q 6.014623751953123 0.09439200000000003 6.066607751953123 0.09165599999999996 L 6.126799751953123 0.09028800000000003 Q 6.130903751953123 0.09028800000000003 6.130903751953123 0.09849600000000003 Q 6.130903751953123 0.10670400000000002 6.126799751953123 0.10670400000000002 Q 6.055663751953123 0.10670400000000002 6.055663751953123 0.147744 Q 6.055663751953123 0.165528 6.067975751953123 0.190152 L 6.243079751953124 0.5458320000000001 L 6.363463751953123 0.22161600000000004 Q 6.3744077519531235 0.19152000000000002 6.3744077519531235 0.169632 Q 6.3744077519531235 0.10670400000000002 6.2895917519531235 0.10670400000000002 Q 6.285487751953124 0.10670400000000002 6.285487751953124 0.09849600000000003 Q 6.285487751953124 0.09028800000000003 6.2895917519531235 0.09028800000000003 L 6.337471751953124 0.09165599999999996 Q 6.381247751953123 0.09439200000000003 6.423655751953123 0.09439200000000003 Q 6.446911751953123 0.09439200000000003 6.477007751953123 0.09165599999999996 L 6.527623751953123 0.09028800000000003 Q 6.530359751953124 0.09028800000000003 6.530359751953124 0.09849600000000003 M 6.793681048828123 0.6771600000000001 Q 6.8025730488281235 0.6976800000000001 6.827881048828123 0.7058880000000001 Q 6.853189048828123 0.7140960000000001 6.906541048828124 0.7140960000000001 Q 6.9106450488281235 0.7140960000000001 6.9106450488281235 0.7223040000000001 Q 6.9106450488281235 0.730512 6.906541048828124 0.730512 Q 6.8545570488281236 0.730512 6.8258290488281235 0.729144 L 6.7177570488281235 0.7277760000000001 L 6.628837048828124 0.729144 Q 6.604213048828123 0.730512 6.560437048828123 0.730512 Q 6.5577010488281235 0.730512 6.5577010488281235 0.7223040000000001 Q 6.5577010488281235 0.7140960000000001 6.560437048828123 0.7140960000000001 Q 6.598741048828123 0.7140960000000001 6.617209048828124 0.7065720000000001 Q 6.635677048828123 0.699048 6.6425170488281235 0.6798960000000001 Q 6.649357048828123 0.660744 6.649357048828123 0.619704 L 6.649357048828123 0.20109600000000005 Q 6.649357048828123 0.161424 6.641833048828124 0.14158800000000005 Q 6.634309048828124 0.12175199999999997 6.615841048828123 0.114228 Q 6.597373048828123 0.10670400000000002 6.560437048828123 0.10670400000000002 Q 6.5577010488281235 0.10670400000000002 6.5577010488281235 0.09849600000000003 Q 6.5577010488281235 0.09028800000000003 6.560437048828123 0.09028800000000003 L 6.627469048828123 0.09165599999999996 Q 6.6849250488281236 0.09439200000000003 6.716389048828123 0.09439200000000003 Q 6.751957048828124 0.09439200000000003 6.790261048828123 0.09028800000000003 Q 6.805309048828123 0.08892 6.8333530488281236 0.08755199999999996 Q 6.861397048828123 0.08618400000000004 6.881917048828123 0.08618400000000004 Q 6.999565048828123 0.08618400000000004 7.061125048828123 0.12448800000000004 Q 7.1226850488281235 0.16279200000000005 7.1226850488281235 0.2394 Q 7.1226850488281235 0.3078 7.089169048828124 0.35568000000000005 Q 7.055653048828123 0.40356000000000003 7.001617048828123 0.42750000000000005 Q 6.947581048828123 0.45144 6.8873890488281235 0.45144 Q 6.861397048828123 0.45144 6.855925048828124 0.44870400000000005 Q 6.851821048828123 0.44596800000000003 6.851821048828123 0.439128 Q 6.851821048828123 0.43092 6.861397048828123 0.43092 L 6.880549048828123 0.43228800000000006 Q 6.921589048828124 0.43228800000000006 6.945529048828123 0.39193200000000006 Q 6.969469048828124 0.35157600000000006 6.969469048828124 0.27086400000000005 Q 6.969469048828124 0.186048 6.939373048828124 0.148428 Q 6.909277048828123 0.11080800000000002 6.850453048828124 0.11080800000000002 Q 6.816253048828123 0.11080800000000002 6.800521048828124 0.12927600000000006 Q 6.784789048828124 0.147744 6.784789048828124 0.203832 L 6.784789048828124 0.614232 Q 6.784789048828124 0.65664 6.793681048828123 0.6771600000000001 M 7.9366564042968735 0.7223040000000001 Q 7.9366564042968735 0.730512 7.933920404296873 0.730512 Q 7.899720404296874 0.730512 7.8805684042968736 0.729144 L 7.8094324042968735 0.7277760000000001 L 7.727352404296873 0.729144 Q 7.706832404296874 0.730512 7.672632404296873 0.730512 Q 7.669896404296873 0.730512 7.669896404296873 0.7223040000000001 Q 7.669896404296873 0.7140960000000001 7.672632404296873 0.7140960000000001 Q 7.704096404296873 0.7140960000000001 7.719144404296873 0.7058880000000001 Q 7.7341924042968735 0.6976800000000001 7.739664404296873 0.677844 Q 7.745136404296873 0.658008 7.745136404296873 0.6169680000000001 L 7.745136404296873 0.34473600000000004 Q 7.745136404296873 0.216144 7.707516404296873 0.16758000000000006 Q 7.669896404296873 0.11901600000000001 7.604232404296873 0.11901600000000001 Q 7.549512404296873 0.11901600000000001 7.502316404296873 0.14637600000000006 Q 7.455120404296873 0.173736 7.4140804042968735 0.235296 L 7.4140804042968735 0.6169680000000001 Q 7.4140804042968735 0.658008 7.418868404296873 0.677844 Q 7.423656404296874 0.6976800000000001 7.438020404296873 0.7058880000000001 Q 7.452384404296873 0.7140960000000001 7.482480404296873 0.7140960000000001 Q 7.485216404296873 0.7140960000000001 7.485216404296873 0.7223040000000001 Q 7.485216404296873 0.730512 7.482480404296873 0.730512 Q 7.442808404296873 0.730512 7.419552404296873 0.729144 L 7.340208404296873 0.7277760000000001 L 7.264968404296873 0.729144 Q 7.243080404296873 0.730512 7.203408404296873 0.730512 Q 7.200672404296873 0.730512 7.200672404296873 0.7223040000000001 Q 7.200672404296873 0.7140960000000001 7.203408404296873 0.7140960000000001 Q 7.2348724042968735 0.7140960000000001 7.250604404296873 0.707256 Q 7.266336404296873 0.700416 7.271808404296873 0.6805800000000001 Q 7.2772804042968735 0.660744 7.2772804042968735 0.619704 L 7.2772804042968735 0.20109600000000005 Q 7.2772804042968735 0.16005599999999998 7.271808404296873 0.14090400000000003 Q 7.266336404296873 0.12175199999999997 7.251972404296873 0.114228 Q 7.237608404296873 0.10670400000000002 7.207512404296873 0.10670400000000002 Q 7.203408404296873 0.10670400000000002 7.203408404296873 0.09849600000000003 Q 7.203408404296873 0.09028800000000003 7.207512404296873 0.09028800000000003 L 7.296432404296874 0.09165599999999996 L 7.388088404296873 0.09028800000000003 Q 7.4045044042968735 0.09028800000000003 7.409292404296873 0.09507600000000005 Q 7.4140804042968735 0.09986400000000006 7.4140804042968735 0.11628000000000005 L 7.4140804042968735 0.19152000000000002 Q 7.466064404296874 0.131328 7.526256404296873 0.10260000000000002 Q 7.586448404296873 0.07387200000000005 7.6589524042968735 0.07387200000000005 Q 7.754712404296873 0.07387200000000005 7.817640404296873 0.12790800000000002 Q 7.8805684042968736 0.181944 7.8805684042968736 0.31327200000000005 L 7.8805684042968736 0.619704 Q 7.8805684042968736 0.660744 7.884672404296873 0.6805800000000001 Q 7.888776404296873 0.700416 7.899720404296874 0.707256 Q 7.910664404296873 0.7140960000000001 7.933920404296873 0.7140960000000001 Q 7.9366564042968735 0.7140960000000001 7.9366564042968735 0.7223040000000001 M 8.631624451171874 0.6498 Q 8.635728451171873 0.6498 8.637780451171874 0.65664 Q 8.639832451171873 0.6634800000000001 8.634360451171874 0.6648480000000001 L 8.483880451171874 0.737352 Q 8.478408451171873 0.7400880000000001 8.471568451171875 0.7400880000000001 Q 8.445576451171874 0.7400880000000001 8.420268451171873 0.7182000000000001 Q 8.394960451171874 0.696312 8.381280451171873 0.648432 L 8.299200451171874 0.696312 Q 8.258160451171873 0.720936 8.226012451171874 0.730512 Q 8.193864451171873 0.7400880000000001 8.159664451171874 0.7400880000000001 Q 8.106312451171874 0.7400880000000001 8.072112451171874 0.71136 Q 8.037912451171874 0.682632 8.037912451171874 0.637488 Q 8.037912451171874 0.59508 8.065956451171873 0.562932 Q 8.094000451171874 0.530784 8.144616451171874 0.513 L 8.371704451171874 0.43228800000000006 L 8.371704451171874 0.269496 Q 8.371704451171874 0.186048 8.354604451171873 0.147744 Q 8.337504451171874 0.10943999999999998 8.299200451171874 0.10943999999999998 Q 8.255424451171873 0.10943999999999998 8.230800451171874 0.14911200000000002 Q 8.206176451171874 0.18878400000000006 8.192496451171873 0.250344 Q 8.177448451171873 0.326952 8.113152451171874 0.326952 Q 8.078952451171874 0.326952 8.059116451171874 0.309852 Q 8.039280451171873 0.292752 8.039280451171873 0.261288 Q 8.039280451171873 0.220248 8.090580451171874 0.17715599999999998 Q 8.141880451171874 0.13406400000000007 8.215752451171873 0.10602 Q 8.289624451171873 0.07797600000000005 8.351184451171873 0.07797600000000005 Q 8.423688451171873 0.07797600000000005 8.466096451171873 0.11559600000000003 Q 8.508504451171873 0.15321600000000002 8.508504451171873 0.228456 L 8.508504451171873 0.5198400000000001 Q 8.508504451171873 0.5814 8.519448451171874 0.611496 Q 8.530392451171874 0.641592 8.547492451171873 0.6498 Q 8.564592451171874 0.658008 8.591952451171874 0.658008 Q 8.605632451171873 0.658008 8.628888451171873 0.6511680000000001 L 8.631624451171874 0.6498 M 8.375808451171874 0.6210720000000001 Q 8.371704451171874 0.5964480000000001 8.371704451171874 0.5663520000000001 L 8.371704451171874 0.46101600000000004 L 8.254056451171873 0.504792 Q 8.188392451171874 0.529416 8.188392451171874 0.592344 Q 8.188392451171874 0.6292800000000001 8.206176451171874 0.6504840000000001 Q 8.223960451171873 0.6716880000000001 8.254056451171873 0.6716880000000001 Q 8.275944451171874 0.6716880000000001 8.314248451171874 0.652536 L 8.375808451171874 0.6210720000000001 M 9.122761166015623 0.6511680000000001 Q 9.128233166015624 0.6511680000000001 9.130285166015623 0.65664 Q 9.132337166015624 0.662112 9.128233166015624 0.6648480000000001 Q 9.072145166015623 0.7099920000000001 9.027685166015623 0.72846 Q 8.983225166015623 0.746928 8.928505166015624 0.746928 Q 8.846425166015623 0.746928 8.790337166015624 0.703152 Q 8.734249166015623 0.6593760000000001 8.734249166015623 0.558144 L 8.734249166015623 0.19972800000000002 Q 8.734249166015623 0.16279200000000005 8.718517166015623 0.15048000000000006 Q 8.702785166015623 0.13816800000000007 8.660377166015623 0.13816800000000007 Q 8.656273166015623 0.13816800000000007 8.656273166015623 0.12585599999999997 Q 8.656273166015623 0.11354399999999998 8.660377166015623 0.11354399999999998 Q 8.730145166015623 0.11354399999999998 8.782129166015624 0.08344799999999997 Q 8.834113166015623 0.053352000000000066 8.849161166015623 0.0041039999999999965 Q 8.851897166015624 0 8.857369166015623 0 Q 8.862841166015624 0 8.866945166015624 0.0020520000000000538 Q 8.871049166015624 0.0041039999999999965 8.871049166015624 0.006839999999999957 L 8.871049166015624 0.10670400000000002 Q 8.965441166015623 0.10533599999999999 9.091297166015623 0.09439200000000003 Q 9.095401166015623 0.09439200000000003 9.098137166015624 0.10396800000000006 Q 9.100873166015623 0.11354399999999998 9.100873166015623 0.127224 Q 9.100873166015623 0.14090400000000003 9.096085166015623 0.15390000000000004 Q 9.091297166015623 0.16689600000000004 9.087193166015624 0.165528 Q 9.022897166015623 0.14911200000000002 8.871049166015624 0.14364 L 8.871049166015624 0.52668 Q 8.871049166015624 0.6894720000000001 8.991433166015623 0.6894720000000001 Q 9.065305166015623 0.6894720000000001 9.120025166015623 0.652536 L 9.122761166015623 0.6511680000000001 M 9.333439845703124 0.36252 Q 9.333439845703124 0.514368 9.400471845703125 0.6046560000000001 Q 9.467503845703124 0.694944 9.589255845703125 0.694944 Q 9.623455845703123 0.694944 9.659023845703125 0.6853680000000001 Q 9.694591845703124 0.6757920000000001 9.721951845703124 0.65664 L 9.723319845703124 0.65664 Q 9.727423845703123 0.65664 9.730843845703124 0.661428 Q 9.734263845703124 0.666216 9.731527845703123 0.67032 Q 9.635767845703125 0.746928 9.520855845703124 0.746928 Q 9.414151845703124 0.746928 9.339595845703125 0.7011000000000001 Q 9.265039845703125 0.6552720000000001 9.226735845703125 0.5814 Q 9.188431845703125 0.507528 9.188431845703125 0.42134400000000005 Q 9.188431845703125 0.326952 9.234943845703125 0.248292 Q 9.281455845703125 0.169632 9.360799845703124 0.12380400000000003 Q 9.440143845703124 0.07797600000000005 9.533167845703124 0.07797600000000005 Q 9.634399845703124 0.07797600000000005 9.687751845703124 0.131328 Q 9.741103845703124 0.18468000000000007 9.741103845703124 0.27086400000000005 Q 9.741103845703124 0.288648 9.737683845703124 0.29548800000000003 Q 9.734263845703124 0.30232800000000004 9.724687845703125 0.30232800000000004 L 9.336175845703124 0.303696 Q 9.333439845703124 0.339264 9.333439845703124 0.36252 M 9.391579845703124 0.15458400000000005 Q 9.353959845703125 0.19835999999999998 9.340279845703124 0.276336 L 9.594727845703124 0.27223200000000003 Q 9.591991845703124 0.11080800000000002 9.486655845703124 0.11080800000000002 Q 9.429199845703124 0.11080800000000002 9.391579845703124 0.15458400000000005" fill="#32a0ac" fill-rule="nonzero"></path></g><g><path d=" M 0.177 1.81178535 Q 0.1665 1.81103535 0.150375 1.81028535 Q 0.13425 1.80953535 0.11475 1.80953535 L 0.06375 1.81028535 Q 0.05025 1.81103535 0.02625 1.81103535 Q 0.02475 1.81103535 0.02475 1.80653535 Q 0.02475 1.8020353500000001 0.02625 1.8020353500000001 Q 0.05475 1.8020353500000001 0.067875 1.79828535 Q 0.081 1.79453535 0.085875 1.7836603500000001 Q 0.09075 1.7727853500000001 0.09075 1.75028535 L 0.09075 1.4030353500000001 Q 0.09075 1.3805353500000002 0.08625000000000001 1.37003535 Q 0.08175 1.35953535 0.068625 1.35541035 Q 0.0555 1.35128535 0.027 1.35128535 Q 0.025500000000000002 1.35128535 0.025500000000000002 1.34678535 Q 0.025500000000000002 1.34228535 0.027 1.34228535 L 0.0645 1.34303535 Q 0.096 1.3445353500000001 0.11475 1.3445353500000001 Q 0.14325000000000002 1.3445353500000001 0.171 1.34228535 Q 0.20400000000000001 1.34078535 0.21675 1.34078535 Q 0.29475 1.34078535 0.35475 1.37078535 Q 0.41475 1.40078535 0.448125 1.45253535 Q 0.4815 1.50428535 0.4815 1.56878535 Q 0.4815 1.64153535 0.447375 1.69741035 Q 0.41325 1.75328535 0.35475 1.7836603500000001 Q 0.29625 1.81403535 0.22725 1.81403535 Q 0.20550000000000002 1.81403535 0.177 1.81178535 M 0.32625 1.7776603500000001 Q 0.37275 1.75253535 0.398625 1.70341035 Q 0.4245 1.65428535 0.4245 1.58528535 Q 0.4245 1.5200353500000001 0.39975 1.46678535 Q 0.375 1.41353535 0.32925 1.38278535 Q 0.28350000000000003 1.35203535 0.2235 1.35203535 Q 0.19125 1.35203535 0.173625 1.3557853500000001 Q 0.156 1.35953535 0.14775 1.37078535 Q 0.1395 1.38203535 0.1395 1.40453535 L 0.1395 1.74203535 Q 0.1395 1.76453535 0.145875 1.77728535 Q 0.15225 1.7900353500000001 0.169875 1.79641035 Q 0.1875 1.80278535 0.21975 1.80278535 Q 0.27975 1.80278535 0.32625 1.7776603500000001 M 0.6569842529296874 1.7840353500000001 Q 0.6611092529296875 1.79453535 0.6723592529296875 1.79828535 Q 0.6836092529296874 1.8020353500000001 0.7091092529296874 1.8020353500000001 Q 0.7106092529296875 1.8020353500000001 0.7106092529296875 1.80653535 Q 0.7106092529296875 1.81103535 0.7091092529296874 1.81103535 Q 0.6881092529296875 1.81103535 0.6761092529296875 1.81028535 L 0.6288592529296875 1.80953535 L 0.5846092529296875 1.81028535 Q 0.5718592529296874 1.81103535 0.5501092529296874 1.81103535 Q 0.5486092529296874 1.81103535 0.5486092529296874 1.80653535 Q 0.5486092529296874 1.8020353500000001 0.5501092529296874 1.8020353500000001 Q 0.5756092529296875 1.8020353500000001 0.5868592529296874 1.79828535 Q 0.5981092529296874 1.79453535 0.6022342529296875 1.7840353500000001 Q 0.6063592529296874 1.77353535 0.6063592529296874 1.75028535 L 0.6063592529296874 1.5207853500000001 Q 0.6063592529296874 1.49828535 0.6022342529296875 1.48778535 Q 0.5981092529296874 1.47728535 0.5864842529296874 1.4731603500000001 Q 0.5748592529296874 1.46903535 0.5501092529296874 1.46903535 Q 0.5486092529296874 1.46903535 0.5486092529296874 1.46453535 Q 0.5486092529296874 1.46003535 0.5501092529296874 1.46003535 L 0.5846092529296875 1.46078535 Q 0.6116092529296875 1.4622853500000002 0.6288592529296875 1.4622853500000002 Q 0.6483592529296874 1.4622853500000002 0.6768592529296874 1.46078535 L 0.7091092529296874 1.46003535 Q 0.7106092529296875 1.46003535 0.7106092529296875 1.46453535 Q 0.7106092529296875 1.46903535 0.7091092529296874 1.46903535 Q 0.6851092529296874 1.46903535 0.6731092529296874 1.4735353500000001 Q 0.6611092529296875 1.47803535 0.6569842529296874 1.48891035 Q 0.6528592529296875 1.49978535 0.6528592529296875 1.52228535 L 0.6528592529296875 1.75028535 Q 0.6528592529296875 1.77353535 0.6569842529296874 1.7840353500000001 M 0.8403815917968749 1.56016035 Q 0.8520065917968749 1.57703535 0.8692565917968749 1.58828535 Q 0.8865065917968749 1.59953535 0.9150065917968748 1.6145353500000001 Q 0.9457565917968749 1.63103535 0.9645065917968749 1.6434103500000001 Q 0.9832565917968749 1.65578535 0.9960065917968749 1.67453535 Q 1.0087565917968748 1.69328535 1.0087565917968748 1.7195353500000001 Q 1.0087565917968748 1.74728535 0.9933815917968749 1.77016035 Q 0.9780065917968749 1.79303535 0.9495065917968748 1.80653535 Q 0.9210065917968748 1.82003535 0.8827565917968749 1.82003535 Q 0.8280065917968749 1.82003535 0.7920065917968748 1.79378535 Q 0.7882565917968749 1.79228535 0.7871315917968749 1.78928535 Q 0.7860065917968748 1.78628535 0.7852565917968749 1.77953535 L 0.7777565917968748 1.70528535 Q 0.7770065917968748 1.7022853500000001 0.7811315917968749 1.7015353500000001 Q 0.7852565917968749 1.70078535 0.7867565917968748 1.70378535 Q 0.7972565917968749 1.74728535 0.8283815917968749 1.7776603500000001 Q 0.8595065917968748 1.8080353500000002 0.8977565917968748 1.8080353500000002 Q 0.9240065917968748 1.8080353500000002 0.9431315917968749 1.79266035 Q 0.9622565917968748 1.77728535 0.9622565917968748 1.74503535 Q 0.9622565917968748 1.71053535 0.9397565917968749 1.68878535 Q 0.9172565917968749 1.66703535 0.8745065917968748 1.64453535 Q 0.8445065917968748 1.62803535 0.8268815917968748 1.61566035 Q 0.8092565917968748 1.60328535 0.7972565917968749 1.58528535 Q 0.7852565917968749 1.5672853500000001 0.7852565917968749 1.54178535 Q 0.7852565917968749 1.49903535 0.8182565917968748 1.47503535 Q 0.8512565917968749 1.4510353500000002 0.8985065917968749 1.4510353500000002 Q 0.9382565917968748 1.4510353500000002 0.9735065917968748 1.46828535 Q 0.9802565917968749 1.47203535 0.9821315917968749 1.4739103500000001 Q 0.9840065917968749 1.47578535 0.9847565917968748 1.48103535 L 0.9900065917968749 1.54628535 Q 0.9900065917968749 1.5492853500000001 0.9858815917968748 1.55003535 Q 0.9817565917968749 1.55078535 0.9810065917968749 1.54778535 Q 0.9772565917968749 1.52903535 0.9641315917968749 1.5091603500000002 Q 0.9510065917968749 1.48928535 0.9303815917968749 1.47578535 Q 0.9097565917968748 1.4622853500000002 0.8850065917968748 1.4622853500000002 Q 0.8580065917968749 1.4622853500000002 0.8433815917968749 1.47878535 Q 0.8287565917968749 1.49528535 0.8287565917968749 1.5207853500000001 Q 0.8287565917968749 1.5432853500000001 0.8403815917968749 1.56016035 M 1.3305106201171875 1.45703535 Q 1.3631356201171874 1.46303535 1.3833856201171875 1.47278535 Q 1.3886356201171874 1.47503535 1.3901356201171873 1.47728535 Q 1.3916356201171873 1.47953535 1.3923856201171874 1.4855353500000001 L 1.3998856201171874 1.56278535 Q 1.3998856201171874 1.56503535 1.3957606201171875 1.56578535 Q 1.3916356201171873 1.56653535 1.3908856201171873 1.56353535 Q 1.3773856201171875 1.51178535 1.3417606201171874 1.48703535 Q 1.3061356201171874 1.4622853500000002 1.2536356201171874 1.4622853500000002 Q 1.2146356201171873 1.4622853500000002 1.1835106201171874 1.48328535 Q 1.1523856201171874 1.50428535 1.1347606201171874 1.54066035 Q 1.1171356201171874 1.57703535 1.1171356201171874 1.62278535 Q 1.1171356201171874 1.66928535 1.1347606201171874 1.71241035 Q 1.1523856201171874 1.75553535 1.1880106201171874 1.78253535 Q 1.2236356201171874 1.80953535 1.2738856201171873 1.80953535 Q 1.3683856201171873 1.80953535 1.3976356201171873 1.70603535 Q 1.3976356201171873 1.70378535 1.4013856201171875 1.70378535 Q 1.4028856201171873 1.70378535 1.4047606201171874 1.70491035 Q 1.4066356201171875 1.70603535 1.4066356201171875 1.70678535 L 1.3968856201171875 1.78628535 Q 1.3961356201171875 1.79228535 1.3946356201171874 1.79453535 Q 1.3931356201171874 1.79678535 1.3863856201171874 1.79978535 Q 1.3286356201171874 1.82003535 1.2663856201171875 1.82003535 Q 1.1951356201171874 1.82003535 1.1493856201171875 1.79153535 Q 1.1036356201171875 1.76303535 1.0833856201171874 1.7202853500000002 Q 1.0631356201171873 1.67753535 1.0631356201171873 1.63403535 Q 1.0631356201171873 1.58303535 1.0901356201171875 1.54103535 Q 1.1171356201171874 1.49903535 1.1643856201171874 1.47503535 Q 1.2116356201171874 1.4510353500000002 1.2693856201171874 1.4510353500000002 Q 1.2978856201171873 1.4510353500000002 1.3305106201171875 1.45703535 M 1.5483900146484373 1.7952853500000001 Q 1.5075150146484373 1.77053535 1.4850150146484373 1.72853535 Q 1.4625150146484371 1.68653535 1.4625150146484371 1.6377853500000001 Q 1.4625150146484371 1.5792853500000001 1.4928900146484372 1.53691035 Q 1.5232650146484372 1.49453535 1.5701400146484372 1.47278535 Q 1.6170150146484372 1.4510353500000002 1.6657650146484373 1.4510353500000002 Q 1.7182650146484373 1.4510353500000002 1.7583900146484372 1.47691035 Q 1.7985150146484372 1.50278535 1.8198900146484371 1.5440353500000001 Q 1.8412650146484373 1.58528535 1.8412650146484373 1.63028535 Q 1.8412650146484373 1.68053535 1.8142650146484374 1.72441035 Q 1.7872650146484372 1.76828535 1.7415150146484373 1.79416035 Q 1.6957650146484373 1.82003535 1.6417650146484373 1.82003535 Q 1.5892650146484373 1.82003535 1.5483900146484373 1.7952853500000001 M 1.7546400146484373 1.76303535 Q 1.7895150146484373 1.72178535 1.7895150146484373 1.6490353500000001 Q 1.7895150146484373 1.59878535 1.771890014648437 1.55753535 Q 1.7542650146484373 1.51628535 1.7205150146484374 1.49153535 Q 1.6867650146484372 1.46678535 1.6402650146484372 1.46678535 Q 1.5802650146484372 1.46678535 1.5472650146484372 1.50691035 Q 1.5142650146484373 1.54703535 1.5142650146484373 1.61903535 Q 1.5142650146484373 1.67078535 1.5318900146484373 1.71278535 Q 1.5495150146484373 1.7547853500000001 1.5828900146484373 1.77953535 Q 1.6162650146484372 1.80428535 1.6612650146484373 1.80428535 Q 1.7197650146484373 1.80428535 1.7546400146484373 1.76303535 M 2.2571597900390623 1.46453535 Q 2.2571597900390623 1.46903535 2.2556597900390623 1.46903535 Q 2.2339097900390623 1.46903535 2.218534790039062 1.48141035 Q 2.203159790039062 1.49378535 2.1911597900390625 1.52378535 L 2.077909790039062 1.81028535 Q 2.077159790039062 1.8132853500000001 2.0696597900390623 1.8132853500000001 Q 2.0621597900390625 1.8132853500000001 2.0614097900390624 1.81028535 L 1.9249097900390624 1.52228535 Q 1.9099097900390622 1.4907853500000001 1.8986597900390623 1.47991035 Q 1.8874097900390623 1.46903535 1.8679097900390622 1.46903535 Q 1.8656597900390623 1.46903535 1.8656597900390623 1.46453535 Q 1.8656597900390623 1.46003535 1.8679097900390622 1.46003535 L 1.8964097900390622 1.46078535 Q 1.9174097900390623 1.4622853500000002 1.9294097900390623 1.4622853500000002 Q 1.9481597900390624 1.4622853500000002 1.9751597900390623 1.46078535 L 2.005159790039062 1.46003535 Q 2.006659790039062 1.46003535 2.006659790039062 1.46453535 Q 2.006659790039062 1.46903535 2.005159790039062 1.46903535 Q 1.9661597900390624 1.46903535 1.9661597900390624 1.49228535 Q 1.9661597900390624 1.50053535 1.9721597900390622 1.51478535 L 2.086909790039062 1.75178535 L 2.1754097900390623 1.51928535 Q 2.180659790039062 1.50353535 2.180659790039062 1.4967853500000001 Q 2.180659790039062 1.46903535 2.1304097900390624 1.46903535 Q 2.1281597900390623 1.46903535 2.1281597900390623 1.46453535 Q 2.1281597900390623 1.46003535 2.1304097900390624 1.46003535 L 2.157409790039062 1.46078535 Q 2.179909790039062 1.4622853500000002 2.1979097900390623 1.4622853500000002 Q 2.2099097900390623 1.4622853500000002 2.227909790039062 1.46078535 L 2.2556597900390623 1.46003535 Q 2.2571597900390623 1.46003535 2.2571597900390623 1.46453535 M 2.5597745361328124 1.77053535 Q 2.5620245361328124 1.77053535 2.563899536132812 1.77316035 Q 2.565774536132812 1.77578535 2.564274536132812 1.7780353500000001 Q 2.5110245361328123 1.82003535 2.448024536132812 1.82003535 Q 2.3947745361328123 1.82003535 2.3568995361328122 1.79491035 Q 2.319024536132812 1.76978535 2.2998995361328123 1.72928535 Q 2.2807745361328124 1.68878535 2.2807745361328124 1.64228535 Q 2.2807745361328124 1.5905353500000001 2.3055245361328125 1.54666035 Q 2.330274536132812 1.50278535 2.3715245361328123 1.47728535 Q 2.412774536132812 1.45178535 2.461524536132812 1.45178535 Q 2.5117745361328123 1.45178535 2.5372745361328124 1.47953535 Q 2.5627745361328125 1.50728535 2.5627745361328125 1.55453535 Q 2.5627745361328125 1.56203535 2.5608995361328124 1.56541035 Q 2.5590245361328123 1.56878535 2.553774536132812 1.56878535 L 2.3355245361328123 1.56953535 Q 2.331024536132812 1.5905353500000001 2.331024536132812 1.61603535 Q 2.331024536132812 1.66703535 2.3482745361328123 1.7079103500000001 Q 2.365524536132812 1.7487853500000001 2.3981495361328125 1.7720353500000001 Q 2.4307745361328124 1.7952853500000001 2.4750245361328123 1.7952853500000001 Q 2.5252745361328124 1.7952853500000001 2.5590245361328123 1.77053535 L 2.5597745361328124 1.77053535 M 2.3756495361328125 1.49116035 Q 2.3490245361328124 1.51553535 2.3377745361328124 1.55828535 L 2.5102745361328123 1.5552853500000001 Q 2.5110245361328123 1.51253535 2.4926495361328125 1.48966035 Q 2.4742745361328122 1.46678535 2.438274536132812 1.46678535 Q 2.402274536132812 1.46678535 2.3756495361328125 1.49116035 M 2.9929189453125 1.80653535 Q 2.9929189453125 1.81103535 2.9914189453124997 1.81103535 L 2.9036689453125 1.81103535 Q 2.8901689453125 1.81103535 2.8560439453125 1.7660353500000001 Q 2.8219189453125 1.72103535 2.7739189453125 1.64153535 Q 2.7596689453125 1.64453535 2.7416689453125 1.64453535 Q 2.7229189453125 1.64453535 2.7131689453125 1.6430353500000001 L 2.7131689453125 1.75028535 Q 2.7131689453125 1.77353535 2.7169189453125 1.7840353500000001 Q 2.7206689453124997 1.79453535 2.7319189453124997 1.79828535 Q 2.7431689453124997 1.8020353500000001 2.7686689453124997 1.8020353500000001 Q 2.7701689453125 1.8020353500000001 2.7701689453125 1.80653535 Q 2.7701689453125 1.81103535 2.7686689453124997 1.81103535 Q 2.7476689453125 1.81103535 2.7364189453125 1.81028535 L 2.6891689453125 1.80953535 L 2.6449189453125 1.81028535 Q 2.6321689453125 1.81103535 2.6104189453125 1.81103535 Q 2.6089189453125 1.81103535 2.6089189453125 1.80653535 Q 2.6089189453125 1.8020353500000001 2.6104189453125 1.8020353500000001 Q 2.6351689453125 1.8020353500000001 2.6467939453125 1.79828535 Q 2.6584189453125 1.79453535 2.6629189453124997 1.7836603500000001 Q 2.6674189453125 1.7727853500000001 2.6674189453125 1.75028535 L 2.6674189453125 1.5207853500000001 Q 2.6674189453125 1.49828535 2.6632939453124997 1.48778535 Q 2.6591689453125 1.47728535 2.6475439453125 1.4731603500000001 Q 2.6359189453125 1.46903535 2.6111689453125 1.46903535 Q 2.6096689453125 1.46903535 2.6096689453125 1.46453535 Q 2.6096689453125 1.46003535 2.6111689453125 1.46003535 L 2.6456689453125 1.46078535 Q 2.6726689453124997 1.4622853500000002 2.6891689453125 1.4622853500000002 Q 2.7026689453125 1.4622853500000002 2.7142939453125 1.4615353500000001 Q 2.7259189453125 1.46078535 2.7341689453124998 1.46003535 Q 2.7574189453124998 1.45778535 2.7784189453124997 1.45778535 Q 2.8271689453124997 1.45778535 2.8526689453125 1.47653535 Q 2.8781689453125 1.49528535 2.8781689453125 1.53053535 Q 2.8781689453125 1.56053535 2.8609189453124997 1.58603535 Q 2.8436689453125 1.61153535 2.8144189453124997 1.62728535 Q 2.8564189453125 1.6962853500000001 2.8852939453124997 1.73341035 Q 2.9141689453125 1.77053535 2.9385439453125 1.78628535 Q 2.9629189453125 1.8020353500000001 2.9914189453124997 1.8020353500000001 Q 2.9929189453125 1.8020353500000001 2.9929189453125 1.80653535 M 2.7469189453125 1.6317853500000001 Q 2.7934189453125 1.6317853500000001 2.8117939453125 1.61116035 Q 2.8301689453125 1.5905353500000001 2.8301689453125 1.55078535 Q 2.8301689453125 1.46828535 2.7589189453125 1.46828535 Q 2.7304189453124996 1.46828535 2.7217939453124997 1.48028535 Q 2.7131689453125 1.49228535 2.7131689453125 1.52228535 L 2.7131689453125 1.62953535 Q 2.7266689453125 1.6317853500000001 2.7469189453125 1.6317853500000001 M 3.5494405517578125 1.46453535 Q 3.5494405517578125 1.46903535 3.5479405517578124 1.46903535 Q 3.5261905517578125 1.46903535 3.5108155517578123 1.48103535 Q 3.495440551757812 1.49303535 3.4834405517578126 1.52378535 L 3.3701905517578123 1.81028535 Q 3.3536905517578126 1.8545353500000001 3.3274405517578125 1.8890353500000001 Q 3.3011905517578124 1.92353535 3.2719405517578126 1.93778535 Q 3.2696905517578125 1.93928535 3.2629405517578123 1.93403535 Q 3.2561905517578125 1.92878535 3.2516905517578123 1.92128535 Q 3.2456905517578125 1.90928535 3.2456905517578125 1.89878535 Q 3.2456905517578125 1.89203535 3.2479405517578126 1.89203535 Q 3.2869405517578123 1.88528535 3.3135655517578124 1.86803535 Q 3.3401905517578125 1.85078535 3.3559405517578123 1.81403535 L 3.2171905517578123 1.52228535 Q 3.2021905517578126 1.4907853500000001 3.1909405517578127 1.47991035 Q 3.1796905517578122 1.46903535 3.1601905517578124 1.46903535 Q 3.1579405517578123 1.46903535 3.1579405517578123 1.46453535 Q 3.1579405517578123 1.46003535 3.1601905517578124 1.46003535 L 3.1886905517578126 1.46078535 Q 3.2096905517578125 1.4622853500000002 3.2216905517578125 1.4622853500000002 Q 3.2404405517578123 1.4622853500000002 3.2674405517578125 1.46078535 L 3.2974405517578123 1.46003535 Q 3.2989405517578123 1.46003535 3.2989405517578123 1.46453535 Q 3.2989405517578123 1.46903535 3.2974405517578123 1.46903535 Q 3.2584405517578126 1.46903535 3.2584405517578126 1.49228535 Q 3.2584405517578126 1.50278535 3.2644405517578123 1.51478535 L 3.3799405517578123 1.75253535 L 3.4676905517578125 1.51928535 Q 3.4729405517578122 1.50353535 3.4729405517578122 1.4967853500000001 Q 3.4729405517578122 1.46903535 3.4226905517578126 1.46903535 Q 3.4204405517578125 1.46903535 3.4204405517578125 1.46453535 Q 3.4204405517578125 1.46003535 3.4226905517578126 1.46003535 L 3.4496905517578123 1.46078535 Q 3.472190551757812 1.4622853500000002 3.4901905517578125 1.4622853500000002 Q 3.5021905517578125 1.4622853500000002 3.5201905517578123 1.46078535 L 3.5479405517578124 1.46003535 Q 3.5494405517578125 1.46003535 3.5494405517578125 1.46453535 M 3.6589302978515623 1.7952853500000001 Q 3.6180552978515625 1.77053535 3.5955552978515626 1.72853535 Q 3.5730552978515626 1.68653535 3.5730552978515626 1.6377853500000001 Q 3.5730552978515626 1.5792853500000001 3.6034302978515624 1.53691035 Q 3.6338052978515627 1.49453535 3.6806802978515627 1.47278535 Q 3.7275552978515627 1.4510353500000002 3.7763052978515623 1.4510353500000002 Q 3.8288052978515625 1.4510353500000002 3.8689302978515627 1.47691035 Q 3.9090552978515625 1.50278535 3.9304302978515624 1.5440353500000001 Q 3.9518052978515623 1.58528535 3.9518052978515623 1.63028535 Q 3.9518052978515623 1.68053535 3.9248052978515626 1.72441035 Q 3.8978052978515625 1.76828535 3.8520552978515625 1.79416035 Q 3.8063052978515626 1.82003535 3.7523052978515623 1.82003535 Q 3.6998052978515625 1.82003535 3.6589302978515623 1.7952853500000001 M 3.8651802978515626 1.76303535 Q 3.9000552978515626 1.72178535 3.9000552978515626 1.6490353500000001 Q 3.9000552978515626 1.59878535 3.8824302978515624 1.55753535 Q 3.8648052978515626 1.51628535 3.8310552978515626 1.49153535 Q 3.7973052978515627 1.46678535 3.7508052978515627 1.46678535 Q 3.6908052978515626 1.46678535 3.6578052978515623 1.50691035 Q 3.6248052978515624 1.54703535 3.6248052978515624 1.61903535 Q 3.6248052978515624 1.67078535 3.6424302978515626 1.71278535 Q 3.6600552978515624 1.7547853500000001 3.6934302978515623 1.77953535 Q 3.7268052978515627 1.80428535 3.7718052978515626 1.80428535 Q 3.8303052978515626 1.80428535 3.8651802978515626 1.76303535 M 4.417200073242188 1.46453535 Q 4.417200073242188 1.46903535 4.415700073242188 1.46903535 Q 4.390950073242188 1.46903535 4.379325073242187 1.4731603500000001 Q 4.367700073242188 1.47728535 4.363200073242187 1.48778535 Q 4.358700073242187 1.49828535 4.358700073242187 1.5207853500000001 L 4.358700073242187 1.75028535 Q 4.358700073242187 1.7727853500000001 4.362825073242187 1.7836603500000001 Q 4.3669500732421875 1.79453535 4.378200073242187 1.79828535 Q 4.3894500732421875 1.8020353500000001 4.4134500732421875 1.8020353500000001 Q 4.415700073242188 1.8020353500000001 4.415700073242188 1.80653535 Q 4.415700073242188 1.81103535 4.4134500732421875 1.81103535 L 4.3647000732421875 1.81028535 L 4.327200073242188 1.81103535 Q 4.3182000732421875 1.81103535 4.315950073242187 1.80878535 Q 4.313700073242187 1.80653535 4.313700073242187 1.79678535 L 4.313700073242187 1.75328535 Q 4.279200073242188 1.78778535 4.244325073242187 1.80391035 Q 4.209450073242188 1.82003535 4.171200073242187 1.82003535 Q 4.117950073242188 1.82003535 4.083075073242187 1.79191035 Q 4.048200073242188 1.76378535 4.048200073242188 1.71428535 L 4.048200073242188 1.5207853500000001 Q 4.048200073242188 1.49828535 4.044825073242188 1.48778535 Q 4.041450073242188 1.47728535 4.032075073242187 1.4731603500000001 Q 4.022700073242188 1.46903535 4.002450073242188 1.46903535 Q 4.000950073242188 1.46903535 4.000950073242188 1.46453535 Q 4.000950073242188 1.46003535 4.002450073242188 1.46003535 L 4.031700073242187 1.46078535 Q 4.057200073242187 1.4622853500000002 4.070700073242188 1.4622853500000002 Q 4.089450073242188 1.4622853500000002 4.117950073242188 1.46078535 L 4.148700073242187 1.46003535 Q 4.150200073242187 1.46003535 4.150200073242187 1.46453535 Q 4.150200073242187 1.46903535 4.148700073242187 1.46903535 Q 4.124700073242187 1.46903535 4.113075073242188 1.4735353500000001 Q 4.101450073242187 1.47803535 4.097325073242187 1.48891035 Q 4.093200073242188 1.49978535 4.093200073242188 1.52228535 L 4.093200073242188 1.68878535 Q 4.093200073242188 1.79978535 4.191450073242187 1.79978535 Q 4.2244500732421875 1.79978535 4.253325073242188 1.78553535 Q 4.282200073242188 1.77128535 4.313700073242187 1.73828535 L 4.313700073242187 1.52228535 Q 4.313700073242187 1.49978535 4.309950073242187 1.48891035 Q 4.306200073242188 1.47803535 4.2949500732421875 1.4735353500000001 Q 4.283700073242188 1.46903535 4.259700073242188 1.46903535 Q 4.258200073242188 1.46903535 4.258200073242188 1.46453535 Q 4.258200073242188 1.46003535 4.259700073242188 1.46003535 L 4.292700073242187 1.46078535 Q 4.321200073242188 1.4622853500000002 4.338450073242187 1.4622853500000002 Q 4.354200073242188 1.4622853500000002 4.382700073242187 1.46078535 L 4.415700073242188 1.46003535 Q 4.417200073242188 1.46003535 4.417200073242188 1.46453535 M 4.851845947265625 1.80653535 Q 4.851845947265625 1.81103535 4.850345947265625 1.81103535 L 4.762595947265624 1.81103535 Q 4.749095947265625 1.81103535 4.714970947265624 1.7660353500000001 Q 4.680845947265625 1.72103535 4.632845947265625 1.64153535 Q 4.618595947265625 1.64453535 4.600595947265624 1.64453535 Q 4.5818459472656246 1.64453535 4.572095947265625 1.6430353500000001 L 4.572095947265625 1.75028535 Q 4.572095947265625 1.77353535 4.575845947265624 1.7840353500000001 Q 4.5795959472656245 1.79453535 4.590845947265625 1.79828535 Q 4.602095947265624 1.8020353500000001 4.6275959472656245 1.8020353500000001 Q 4.629095947265625 1.8020353500000001 4.629095947265625 1.80653535 Q 4.629095947265625 1.81103535 4.6275959472656245 1.81103535 Q 4.606595947265625 1.81103535 4.595345947265624 1.81028535 L 4.548095947265625 1.80953535 L 4.503845947265624 1.81028535 Q 4.491095947265625 1.81103535 4.469345947265625 1.81103535 Q 4.467845947265625 1.81103535 4.467845947265625 1.80653535 Q 4.467845947265625 1.8020353500000001 4.469345947265625 1.8020353500000001 Q 4.494095947265625 1.8020353500000001 4.505720947265624 1.79828535 Q 4.517345947265625 1.79453535 4.521845947265625 1.7836603500000001 Q 4.526345947265624 1.7727853500000001 4.526345947265624 1.75028535 L 4.526345947265624 1.5207853500000001 Q 4.526345947265624 1.49828535 4.522220947265625 1.48778535 Q 4.518095947265625 1.47728535 4.506470947265624 1.4731603500000001 Q 4.494845947265625 1.46903535 4.470095947265625 1.46903535 Q 4.468595947265625 1.46903535 4.468595947265625 1.46453535 Q 4.468595947265625 1.46003535 4.470095947265625 1.46003535 L 4.504595947265624 1.46078535 Q 4.531595947265624 1.4622853500000002 4.548095947265625 1.4622853500000002 Q 4.561595947265625 1.4622853500000002 4.573220947265624 1.4615353500000001 Q 4.584845947265625 1.46078535 4.593095947265625 1.46003535 Q 4.616345947265625 1.45778535 4.637345947265625 1.45778535 Q 4.686095947265625 1.45778535 4.711595947265625 1.47653535 Q 4.737095947265624 1.49528535 4.737095947265624 1.53053535 Q 4.737095947265624 1.56053535 4.7198459472656245 1.58603535 Q 4.702595947265625 1.61153535 4.6733459472656245 1.62728535 Q 4.715345947265624 1.6962853500000001 4.7442209472656245 1.73341035 Q 4.773095947265625 1.77053535 4.797470947265625 1.78628535 Q 4.821845947265625 1.8020353500000001 4.850345947265625 1.8020353500000001 Q 4.851845947265625 1.8020353500000001 4.851845947265625 1.80653535 M 4.605845947265625 1.6317853500000001 Q 4.652345947265625 1.6317853500000001 4.670720947265624 1.61116035 Q 4.689095947265624 1.5905353500000001 4.689095947265624 1.55078535 Q 4.689095947265624 1.46828535 4.617845947265625 1.46828535 Q 4.589345947265625 1.46828535 4.5807209472656245 1.48028535 Q 4.572095947265625 1.49228535 4.572095947265625 1.52228535 L 4.572095947265625 1.62953535 Q 4.585595947265625 1.6317853500000001 4.605845947265625 1.6317853500000001 M 5.460867553710937 1.80653535 Q 5.460867553710937 1.81103535 5.459367553710937 1.81103535 Q 5.440617553710937 1.81103535 5.430117553710938 1.81028535 L 5.391117553710937 1.80953535 L 5.343867553710937 1.81028535 Q 5.3326175537109375 1.81103535 5.313867553710937 1.81103535 Q 5.312367553710938 1.81103535 5.312367553710938 1.80653535 Q 5.312367553710938 1.8020353500000001 5.313867553710937 1.8020353500000001 Q 5.337867553710938 1.8020353500000001 5.349492553710937 1.79753535 Q 5.361117553710937 1.79303535 5.365242553710937 1.78216035 Q 5.369367553710937 1.77128535 5.369367553710937 1.7487853500000001 L 5.369367553710937 1.59953535 Q 5.369367553710937 1.52753535 5.344242553710937 1.49941035 Q 5.319117553710937 1.47128535 5.271867553710937 1.47128535 Q 5.2381175537109375 1.47128535 5.209242553710937 1.4851603500000001 Q 5.180367553710937 1.49903535 5.148117553710938 1.53353535 L 5.148117553710938 1.7487853500000001 Q 5.148117553710938 1.77128535 5.152242553710937 1.78216035 Q 5.156367553710937 1.79303535 5.1676175537109375 1.79753535 Q 5.178867553710937 1.8020353500000001 5.202117553710937 1.8020353500000001 Q 5.204367553710937 1.8020353500000001 5.204367553710937 1.80653535 Q 5.204367553710937 1.81103535 5.202117553710937 1.81103535 Q 5.181867553710937 1.81103535 5.1698675537109375 1.81028535 L 5.124117553710938 1.80953535 L 5.079867553710937 1.81028535 Q 5.067867553710937 1.81103535 5.046867553710937 1.81103535 Q 5.045367553710937 1.81103535 5.045367553710937 1.80653535 Q 5.045367553710937 1.8020353500000001 5.046867553710937 1.8020353500000001 Q 5.070867553710937 1.8020353500000001 5.082492553710937 1.79791035 Q 5.094117553710937 1.79378535 5.0986175537109375 1.78328535 Q 5.103117553710937 1.7727853500000001 5.103117553710937 1.75028535 L 5.103117553710937 1.5207853500000001 Q 5.103117553710937 1.49828535 5.0989925537109375 1.48778535 Q 5.094867553710937 1.47728535 5.083617553710937 1.4731603500000001 Q 5.072367553710937 1.46903535 5.049117553710937 1.46903535 Q 5.046867553710937 1.46903535 5.046867553710937 1.46453535 Q 5.046867553710937 1.46003535 5.049117553710937 1.46003535 L 5.0978675537109375 1.46078535 L 5.134617553710937 1.46003535 Q 5.143617553710937 1.46003535 5.1458675537109375 1.4626603500000002 Q 5.148117553710938 1.46528535 5.148117553710938 1.4742853500000002 L 5.148117553710938 1.51853535 Q 5.183367553710937 1.48328535 5.217867553710938 1.4671603500000001 Q 5.252367553710937 1.4510353500000002 5.291367553710937 1.4510353500000002 Q 5.346867553710937 1.4510353500000002 5.3806175537109375 1.48141035 Q 5.414367553710937 1.51178535 5.414367553710937 1.57478535 L 5.414367553710937 1.75028535 Q 5.414367553710937 1.7727853500000001 5.417742553710937 1.7836603500000001 Q 5.421117553710937 1.79453535 5.430492553710938 1.79828535 Q 5.439867553710937 1.8020353500000001 5.459367553710937 1.8020353500000001 Q 5.460867553710937 1.8020353500000001 5.460867553710937 1.80653535 M 5.775481201171875 1.77053535 Q 5.777731201171875 1.77053535 5.779606201171875 1.77316035 Q 5.781481201171875 1.77578535 5.779981201171875 1.7780353500000001 Q 5.726731201171875 1.82003535 5.663731201171875 1.82003535 Q 5.610481201171875 1.82003535 5.572606201171875 1.79491035 Q 5.534731201171875 1.76978535 5.515606201171875 1.72928535 Q 5.496481201171875 1.68878535 5.496481201171875 1.64228535 Q 5.496481201171875 1.5905353500000001 5.521231201171875 1.54666035 Q 5.545981201171875 1.50278535 5.587231201171875 1.47728535 Q 5.628481201171875 1.45178535 5.677231201171875 1.45178535 Q 5.727481201171875 1.45178535 5.752981201171875 1.47953535 Q 5.778481201171875 1.50728535 5.778481201171875 1.55453535 Q 5.778481201171875 1.56203535 5.776606201171875 1.56541035 Q 5.774731201171875 1.56878535 5.769481201171875 1.56878535 L 5.551231201171875 1.56953535 Q 5.546731201171875 1.5905353500000001 5.546731201171875 1.61603535 Q 5.546731201171875 1.66703535 5.563981201171875 1.7079103500000001 Q 5.5812312011718745 1.7487853500000001 5.613856201171875 1.7720353500000001 Q 5.646481201171874 1.7952853500000001 5.690731201171875 1.7952853500000001 Q 5.740981201171874 1.7952853500000001 5.774731201171875 1.77053535 L 5.775481201171875 1.77053535 M 5.591356201171875 1.49116035 Q 5.564731201171875 1.51553535 5.553481201171874 1.55828535 L 5.725981201171875 1.5552853500000001 Q 5.726731201171875 1.51253535 5.708356201171875 1.48966035 Q 5.689981201171875 1.46678535 5.653981201171875 1.46678535 Q 5.617981201171875 1.46678535 5.591356201171875 1.49116035 M 6.170375610351562 1.80653535 Q 6.170375610351562 1.81103535 6.168875610351562 1.81103535 L 6.140375610351562 1.81028535 Q 6.130625610351562 1.80953535 6.113375610351563 1.80953535 L 6.066125610351563 1.81028535 Q 6.055625610351562 1.81103535 6.037625610351562 1.81103535 Q 6.035375610351562 1.81103535 6.035375610351562 1.80653535 Q 6.035375610351562 1.8020353500000001 6.037625610351562 1.8020353500000001 Q 6.052625610351562 1.8020353500000001 6.059000610351562 1.80016035 Q 6.065375610351563 1.79828535 6.065375610351563 1.79378535 Q 6.065375610351563 1.78778535 6.054875610351562 1.7727853500000001 L 5.976875610351562 1.65653535 L 5.912375610351562 1.75103535 Q 5.897375610351562 1.7720353500000001 5.897375610351562 1.78328535 Q 5.897375610351562 1.8020353500000001 5.940125610351562 1.8020353500000001 Q 5.942375610351562 1.8020353500000001 5.942375610351562 1.80653535 Q 5.942375610351562 1.81103535 5.940125610351562 1.81103535 Q 5.919875610351562 1.81103535 5.908625610351562 1.81028535 L 5.862875610351562 1.80953535 L 5.835875610351562 1.81028535 Q 5.8283756103515625 1.81103535 5.811875610351562 1.81103535 Q 5.810375610351563 1.81103535 5.810375610351563 1.80653535 Q 5.810375610351563 1.8020353500000001 5.811875610351562 1.8020353500000001 Q 5.831375610351563 1.8020353500000001 5.853875610351563 1.78816035 Q 5.8763756103515625 1.77428535 5.896625610351562 1.74653535 L 5.9693756103515625 1.64453535 L 5.887625610351562 1.52228535 Q 5.868875610351562 1.49378535 5.848625610351562 1.48141035 Q 5.8283756103515625 1.46903535 5.811125610351563 1.46903535 Q 5.809625610351563 1.46903535 5.809625610351563 1.46453535 Q 5.809625610351563 1.46003535 5.811125610351563 1.46003535 L 5.834375610351563 1.46078535 Q 5.8508756103515625 1.4622853500000002 5.857625610351563 1.4622853500000002 Q 5.877875610351563 1.4622853500000002 5.909375610351562 1.46078535 L 5.942375610351562 1.46003535 Q 5.943875610351562 1.46003535 5.943875610351562 1.46453535 Q 5.943875610351562 1.46903535 5.942375610351562 1.46903535 Q 5.926625610351563 1.46903535 5.920625610351562 1.47091035 Q 5.914625610351562 1.47278535 5.914625610351562 1.47803535 Q 5.914625610351562 1.4847853500000001 5.924375610351563 1.49903535 L 5.997875610351563 1.60853535 L 6.057875610351562 1.5200353500000001 Q 6.072875610351562 1.49603535 6.072875610351562 1.48703535 Q 6.072875610351562 1.46903535 6.031625610351562 1.46903535 Q 6.029375610351562 1.46903535 6.029375610351562 1.46453535 Q 6.029375610351562 1.46003535 6.031625610351562 1.46003535 L 6.061625610351562 1.46078535 Q 6.0871256103515625 1.4622853500000002 6.106625610351562 1.4622853500000002 Q 6.118625610351562 1.4622853500000002 6.1336256103515625 1.46078535 L 6.158375610351563 1.46003535 Q 6.159875610351563 1.46003535 6.159875610351563 1.46453535 Q 6.159875610351563 1.46903535 6.158375610351563 1.46903535 Q 6.138125610351563 1.46903535 6.115625610351563 1.48216035 Q 6.093125610351562 1.49528535 6.072875610351562 1.52453535 L 6.004625610351562 1.61903535 L 6.092375610351562 1.7487853500000001 Q 6.1111256103515625 1.77728535 6.131375610351562 1.7896603500000001 Q 6.151625610351562 1.8020353500000001 6.168875610351562 1.8020353500000001 Q 6.170375610351562 1.8020353500000001 6.170375610351562 1.80653535 M 6.446021850585938 1.77428535 Q 6.448271850585938 1.77428535 6.449771850585937 1.7776603500000001 Q 6.451271850585937 1.78103535 6.449021850585938 1.78253535 Q 6.4182718505859375 1.80278535 6.3953968505859375 1.81141035 Q 6.372521850585938 1.82003535 6.3470218505859375 1.82003535 Q 6.304271850585938 1.82003535 6.2761468505859375 1.7960353500000001 Q 6.248021850585937 1.7720353500000001 6.248021850585937 1.71653535 L 6.248021850585937 1.5200353500000001 Q 6.248021850585937 1.50128535 6.245396850585937 1.49341035 Q 6.242771850585937 1.4855353500000001 6.234896850585938 1.48291035 Q 6.227021850585937 1.48028535 6.209021850585938 1.48028535 Q 6.2067718505859375 1.48028535 6.2067718505859375 1.47541035 Q 6.2067718505859375 1.47053535 6.209021850585938 1.47053535 Q 6.239021850585937 1.47053535 6.259646850585938 1.45478535 Q 6.280271850585938 1.4390353500000002 6.281771850585938 1.41428535 Q 6.281771850585938 1.41203535 6.287021850585937 1.41203535 Q 6.293021850585937 1.41203535 6.293021850585937 1.41428535 L 6.293021850585937 1.46903535 Q 6.354521850585938 1.46828535 6.428771850585937 1.4622853500000002 Q 6.431021850585937 1.4622853500000002 6.432521850585937 1.46678535 Q 6.434021850585937 1.47128535 6.434021850585937 1.47878535 Q 6.434021850585937 1.4855353500000001 6.431396850585937 1.49303535 Q 6.428771850585937 1.50053535 6.426521850585937 1.49978535 Q 6.367271850585937 1.48403535 6.293021850585937 1.48253535 L 6.293021850585937 1.69253535 Q 6.293021850585937 1.74503535 6.313271850585937 1.77016035 Q 6.333521850585937 1.7952853500000001 6.374771850585938 1.7952853500000001 Q 6.414521850585937 1.7952853500000001 6.444521850585938 1.77503535 L 6.446021850585938 1.77428535 M 6.750903442382812 1.7952853500000001 Q 6.7100284423828125 1.77053535 6.6875284423828125 1.72853535 Q 6.665028442382813 1.68653535 6.665028442382813 1.6377853500000001 Q 6.665028442382813 1.5792853500000001 6.695403442382813 1.53691035 Q 6.725778442382812 1.49453535 6.772653442382812 1.47278535 Q 6.819528442382812 1.4510353500000002 6.868278442382812 1.4510353500000002 Q 6.9207784423828125 1.4510353500000002 6.960903442382812 1.47691035 Q 7.001028442382813 1.50278535 7.022403442382813 1.5440353500000001 Q 7.043778442382813 1.58528535 7.043778442382813 1.63028535 Q 7.043778442382813 1.68053535 7.016778442382813 1.72441035 Q 6.989778442382812 1.76828535 6.9440284423828125 1.79416035 Q 6.8982784423828125 1.82003535 6.844278442382812 1.82003535 Q 6.791778442382812 1.82003535 6.750903442382812 1.7952853500000001 M 6.957153442382812 1.76303535 Q 6.9920284423828125 1.72178535 6.9920284423828125 1.6490353500000001 Q 6.9920284423828125 1.59878535 6.974403442382813 1.55753535 Q 6.956778442382812 1.51628535 6.923028442382813 1.49153535 Q 6.889278442382812 1.46678535 6.842778442382812 1.46678535 Q 6.782778442382813 1.46678535 6.749778442382812 1.50691035 Q 6.716778442382813 1.54703535 6.716778442382813 1.61903535 Q 6.716778442382813 1.67078535 6.7344034423828125 1.71278535 Q 6.752028442382812 1.7547853500000001 6.785403442382813 1.77953535 Q 6.818778442382812 1.80428535 6.863778442382812 1.80428535 Q 6.9222784423828125 1.80428535 6.957153442382812 1.76303535 M 7.387673217773438 1.64228535 Q 7.416923217773437 1.66403535 7.416923217773437 1.70453535 Q 7.416923217773437 1.75328535 7.3779232177734375 1.7836603500000001 Q 7.338923217773438 1.81403535 7.277423217773437 1.81403535 Q 7.257923217773437 1.81403535 7.231673217773437 1.81178535 Q 7.221173217773438 1.81103535 7.206923217773437 1.81028535 Q 7.192673217773438 1.80953535 7.176173217773438 1.80953535 L 7.132673217773437 1.81028535 Q 7.1199232177734375 1.81103535 7.098173217773438 1.81103535 Q 7.0966732177734375 1.81103535 7.0966732177734375 1.80653535 Q 7.0966732177734375 1.8020353500000001 7.098173217773438 1.8020353500000001 Q 7.123673217773438 1.8020353500000001 7.135298217773437 1.79828535 Q 7.146923217773438 1.79453535 7.151048217773438 1.7836603500000001 Q 7.155173217773437 1.7727853500000001 7.155173217773437 1.75028535 L 7.155173217773437 1.5207853500000001 Q 7.155173217773437 1.49828535 7.151048217773438 1.48778535 Q 7.146923217773438 1.47728535 7.135298217773437 1.4731603500000001 Q 7.123673217773438 1.46903535 7.098923217773438 1.46903535 Q 7.0974232177734375 1.46903535 7.0974232177734375 1.46453535 Q 7.0974232177734375 1.46003535 7.098923217773438 1.46003535 L 7.132673217773437 1.46078535 Q 7.161173217773437 1.4622853500000002 7.176173217773438 1.4622853500000002 Q 7.196423217773438 1.4622853500000002 7.217423217773438 1.46003535 Q 7.224923217773437 1.45928535 7.238798217773438 1.45853535 Q 7.252673217773437 1.45778535 7.263173217773438 1.45778535 Q 7.317173217773438 1.45778535 7.347173217773437 1.47728535 Q 7.3771732177734375 1.4967853500000001 7.3771732177734375 1.5320353500000001 Q 7.3771732177734375 1.5612853500000001 7.357673217773438 1.58341035 Q 7.338173217773438 1.60553535 7.304423217773437 1.61678535 Q 7.358423217773438 1.62053535 7.387673217773438 1.64228535 M 7.216673217773438 1.47166035 Q 7.207673217773437 1.47578535 7.203923217773437 1.48741035 Q 7.200173217773438 1.49903535 7.200173217773438 1.52228535 L 7.200173217773438 1.61678535 Q 7.2129232177734375 1.61753535 7.2361732177734375 1.61753535 Q 7.285673217773438 1.61753535 7.3077982177734375 1.60366035 Q 7.3299232177734375 1.58978535 7.3299232177734375 1.54778535 Q 7.3299232177734375 1.50578535 7.3081732177734375 1.48666035 Q 7.286423217773438 1.46753535 7.243673217773438 1.46753535 Q 7.225673217773437 1.46753535 7.216673217773438 1.47166035 M 7.367423217773437 1.72178535 Q 7.367423217773437 1.67903535 7.335923217773438 1.65428535 Q 7.304423217773437 1.62953535 7.239173217773438 1.62953535 Q 7.2129232177734375 1.62953535 7.200173217773438 1.63103535 L 7.200173217773438 1.75028535 Q 7.200173217773438 1.7787853500000002 7.2132982177734375 1.7904103500000002 Q 7.226423217773437 1.8020353500000001 7.263923217773438 1.8020353500000001 Q 7.367423217773437 1.8020353500000001 7.367423217773437 1.72178535 M 7.54666259765625 1.56016035 Q 7.55828759765625 1.57703535 7.5755375976562505 1.58828535 Q 7.59278759765625 1.59953535 7.62128759765625 1.6145353500000001 Q 7.65203759765625 1.63103535 7.67078759765625 1.6434103500000001 Q 7.68953759765625 1.65578535 7.70228759765625 1.67453535 Q 7.71503759765625 1.69328535 7.71503759765625 1.7195353500000001 Q 7.71503759765625 1.74728535 7.69966259765625 1.77016035 Q 7.68428759765625 1.79303535 7.65578759765625 1.80653535 Q 7.62728759765625 1.82003535 7.58903759765625 1.82003535 Q 7.53428759765625 1.82003535 7.49828759765625 1.79378535 Q 7.49453759765625 1.79228535 7.49341259765625 1.78928535 Q 7.49228759765625 1.78628535 7.49153759765625 1.77953535 L 7.48403759765625 1.70528535 Q 7.48328759765625 1.7022853500000001 7.48741259765625 1.7015353500000001 Q 7.49153759765625 1.70078535 7.49303759765625 1.70378535 Q 7.50353759765625 1.74728535 7.53466259765625 1.7776603500000001 Q 7.56578759765625 1.8080353500000002 7.60403759765625 1.8080353500000002 Q 7.63028759765625 1.8080353500000002 7.64941259765625 1.79266035 Q 7.66853759765625 1.77728535 7.66853759765625 1.74503535 Q 7.66853759765625 1.71053535 7.64603759765625 1.68878535 Q 7.62353759765625 1.66703535 7.58078759765625 1.64453535 Q 7.55078759765625 1.62803535 7.53316259765625 1.61566035 Q 7.51553759765625 1.60328535 7.50353759765625 1.58528535 Q 7.49153759765625 1.5672853500000001 7.49153759765625 1.54178535 Q 7.49153759765625 1.49903535 7.52453759765625 1.47503535 Q 7.55753759765625 1.4510353500000002 7.60478759765625 1.4510353500000002 Q 7.64453759765625 1.4510353500000002 7.67978759765625 1.46828535 Q 7.68653759765625 1.47203535 7.68841259765625 1.4739103500000001 Q 7.69028759765625 1.47578535 7.69103759765625 1.48103535 L 7.69628759765625 1.54628535 Q 7.69628759765625 1.5492853500000001 7.69216259765625 1.55003535 Q 7.68803759765625 1.55078535 7.68728759765625 1.54778535 Q 7.68353759765625 1.52903535 7.67041259765625 1.5091603500000002 Q 7.65728759765625 1.48928535 7.63666259765625 1.47578535 Q 7.61603759765625 1.4622853500000002 7.59128759765625 1.4622853500000002 Q 7.56428759765625 1.4622853500000002 7.54966259765625 1.47878535 Q 7.53503759765625 1.49528535 7.53503759765625 1.5207853500000001 Q 7.53503759765625 1.5432853500000001 7.54666259765625 1.56016035 M 8.048416625976563 1.77053535 Q 8.050666625976563 1.77053535 8.052541625976563 1.77316035 Q 8.054416625976563 1.77578535 8.052916625976563 1.7780353500000001 Q 7.9996666259765625 1.82003535 7.936666625976563 1.82003535 Q 7.883416625976563 1.82003535 7.845541625976563 1.79491035 Q 7.807666625976562 1.76978535 7.7885416259765625 1.72928535 Q 7.769416625976563 1.68878535 7.769416625976563 1.64228535 Q 7.769416625976563 1.5905353500000001 7.794166625976563 1.54666035 Q 7.818916625976563 1.50278535 7.860166625976563 1.47728535 Q 7.901416625976562 1.45178535 7.950166625976562 1.45178535 Q 8.000416625976563 1.45178535 8.025916625976562 1.47953535 Q 8.051416625976563 1.50728535 8.051416625976563 1.55453535 Q 8.051416625976563 1.56203535 8.049541625976563 1.56541035 Q 8.047666625976563 1.56878535 8.042416625976562 1.56878535 L 7.824166625976563 1.56953535 Q 7.819666625976563 1.5905353500000001 7.819666625976563 1.61603535 Q 7.819666625976563 1.66703535 7.836916625976563 1.7079103500000001 Q 7.854166625976562 1.7487853500000001 7.886791625976563 1.7720353500000001 Q 7.919416625976562 1.7952853500000001 7.963666625976563 1.7952853500000001 Q 8.013916625976563 1.7952853500000001 8.047666625976563 1.77053535 L 8.048416625976563 1.77053535 M 7.864291625976563 1.49116035 Q 7.837666625976563 1.51553535 7.826416625976562 1.55828535 L 7.9989166259765625 1.5552853500000001 Q 7.9996666259765625 1.51253535 7.981291625976563 1.48966035 Q 7.962916625976563 1.46678535 7.926916625976562 1.46678535 Q 7.890916625976563 1.46678535 7.864291625976563 1.49116035 M 8.17293603515625 1.56016035 Q 8.18456103515625 1.57703535 8.201811035156249 1.58828535 Q 8.21906103515625 1.59953535 8.247561035156249 1.6145353500000001 Q 8.27831103515625 1.63103535 8.297061035156249 1.6434103500000001 Q 8.31581103515625 1.65578535 8.32856103515625 1.67453535 Q 8.341311035156249 1.69328535 8.341311035156249 1.7195353500000001 Q 8.341311035156249 1.74728535 8.32593603515625 1.77016035 Q 8.31056103515625 1.79303535 8.28206103515625 1.80653535 Q 8.253561035156249 1.82003535 8.21531103515625 1.82003535 Q 8.160561035156249 1.82003535 8.12456103515625 1.79378535 Q 8.12081103515625 1.79228535 8.11968603515625 1.78928535 Q 8.11856103515625 1.78628535 8.11781103515625 1.77953535 L 8.110311035156249 1.70528535 Q 8.109561035156249 1.7022853500000001 8.113686035156249 1.7015353500000001 Q 8.11781103515625 1.70078535 8.11931103515625 1.70378535 Q 8.12981103515625 1.74728535 8.160936035156249 1.7776603500000001 Q 8.192061035156248 1.8080353500000002 8.23031103515625 1.8080353500000002 Q 8.256561035156249 1.8080353500000002 8.27568603515625 1.79266035 Q 8.294811035156249 1.77728535 8.294811035156249 1.74503535 Q 8.294811035156249 1.71053535 8.27231103515625 1.68878535 Q 8.249811035156249 1.66703535 8.207061035156249 1.64453535 Q 8.17706103515625 1.62803535 8.159436035156249 1.61566035 Q 8.14181103515625 1.60328535 8.12981103515625 1.58528535 Q 8.11781103515625 1.5672853500000001 8.11781103515625 1.54178535 Q 8.11781103515625 1.49903535 8.150811035156249 1.47503535 Q 8.18381103515625 1.4510353500000002 8.23106103515625 1.4510353500000002 Q 8.27081103515625 1.4510353500000002 8.30606103515625 1.46828535 Q 8.31281103515625 1.47203535 8.31468603515625 1.4739103500000001 Q 8.31656103515625 1.47578535 8.31731103515625 1.48103535 L 8.32256103515625 1.54628535 Q 8.32256103515625 1.5492853500000001 8.31843603515625 1.55003535 Q 8.31431103515625 1.55078535 8.31356103515625 1.54778535 Q 8.30981103515625 1.52903535 8.296686035156249 1.5091603500000002 Q 8.28356103515625 1.48928535 8.26293603515625 1.47578535 Q 8.242311035156249 1.4622853500000002 8.21756103515625 1.4622853500000002 Q 8.190561035156248 1.4622853500000002 8.17593603515625 1.47878535 Q 8.161311035156249 1.49528535 8.161311035156249 1.5207853500000001 Q 8.161311035156249 1.5432853500000001 8.17293603515625 1.56016035 M 8.468815063476562 1.56016035 Q 8.480440063476562 1.57703535 8.497690063476561 1.58828535 Q 8.514940063476562 1.59953535 8.543440063476561 1.6145353500000001 Q 8.574190063476562 1.63103535 8.592940063476561 1.6434103500000001 Q 8.611690063476562 1.65578535 8.624440063476563 1.67453535 Q 8.637190063476561 1.69328535 8.637190063476561 1.7195353500000001 Q 8.637190063476561 1.74728535 8.621815063476562 1.77016035 Q 8.606440063476562 1.79303535 8.577940063476563 1.80653535 Q 8.549440063476561 1.82003535 8.511190063476562 1.82003535 Q 8.456440063476562 1.82003535 8.420440063476562 1.79378535 Q 8.416690063476562 1.79228535 8.415565063476562 1.78928535 Q 8.414440063476562 1.78628535 8.413690063476562 1.77953535 L 8.406190063476561 1.70528535 Q 8.405440063476561 1.7022853500000001 8.409565063476562 1.7015353500000001 Q 8.413690063476562 1.70078535 8.415190063476562 1.70378535 Q 8.425690063476562 1.74728535 8.456815063476562 1.7776603500000001 Q 8.487940063476561 1.8080353500000002 8.526190063476562 1.8080353500000002 Q 8.552440063476562 1.8080353500000002 8.571565063476562 1.79266035 Q 8.590690063476561 1.77728535 8.590690063476561 1.74503535 Q 8.590690063476561 1.71053535 8.568190063476562 1.68878535 Q 8.545690063476561 1.66703535 8.502940063476562 1.64453535 Q 8.472940063476562 1.62803535 8.455315063476561 1.61566035 Q 8.437690063476563 1.60328535 8.425690063476562 1.58528535 Q 8.413690063476562 1.5672853500000001 8.413690063476562 1.54178535 Q 8.413690063476562 1.49903535 8.446690063476561 1.47503535 Q 8.479690063476562 1.4510353500000002 8.526940063476562 1.4510353500000002 Q 8.566690063476562 1.4510353500000002 8.601940063476562 1.46828535 Q 8.608690063476562 1.47203535 8.610565063476562 1.4739103500000001 Q 8.612440063476562 1.47578535 8.613190063476562 1.48103535 L 8.618440063476562 1.54628535 Q 8.618440063476562 1.5492853500000001 8.614315063476562 1.55003535 Q 8.610190063476562 1.55078535 8.609440063476562 1.54778535 Q 8.605690063476562 1.52903535 8.592565063476561 1.5091603500000002 Q 8.57944006347656 1.48928535 8.558815063476562 1.47578535 Q 8.538190063476561 1.4622853500000002 8.513440063476562 1.4622853500000002 Q 8.48644006347656 1.4622853500000002 8.471815063476562 1.47878535 Q 8.457190063476562 1.49528535 8.457190063476562 1.5207853500000001 Q 8.457190063476562 1.5432853500000001 8.468815063476562 1.56016035 M 8.802194091796874 1.7840353500000001 Q 8.806319091796874 1.79453535 8.817569091796875 1.79828535 Q 8.828819091796873 1.8020353500000001 8.854319091796874 1.8020353500000001 Q 8.855819091796874 1.8020353500000001 8.855819091796874 1.80653535 Q 8.855819091796874 1.81103535 8.854319091796874 1.81103535 Q 8.833319091796874 1.81103535 8.821319091796875 1.81028535 L 8.774069091796875 1.80953535 L 8.729819091796875 1.81028535 Q 8.717069091796875 1.81103535 8.695319091796874 1.81103535 Q 8.693819091796874 1.81103535 8.693819091796874 1.80653535 Q 8.693819091796874 1.8020353500000001 8.695319091796874 1.8020353500000001 Q 8.720819091796875 1.8020353500000001 8.732069091796875 1.79828535 Q 8.743319091796874 1.79453535 8.747444091796874 1.7840353500000001 Q 8.751569091796874 1.77353535 8.751569091796874 1.75028535 L 8.751569091796874 1.5207853500000001 Q 8.751569091796874 1.49828535 8.747444091796874 1.48778535 Q 8.743319091796874 1.47728535 8.731694091796875 1.4731603500000001 Q 8.720069091796875 1.46903535 8.695319091796874 1.46903535 Q 8.693819091796874 1.46903535 8.693819091796874 1.46453535 Q 8.693819091796874 1.46003535 8.695319091796874 1.46003535 L 8.729819091796875 1.46078535 Q 8.756819091796874 1.4622853500000002 8.774069091796875 1.4622853500000002 Q 8.793569091796874 1.4622853500000002 8.822069091796875 1.46078535 L 8.854319091796874 1.46003535 Q 8.855819091796874 1.46003535 8.855819091796874 1.46453535 Q 8.855819091796874 1.46903535 8.854319091796874 1.46903535 Q 8.830319091796873 1.46903535 8.818319091796875 1.4735353500000001 Q 8.806319091796874 1.47803535 8.802194091796874 1.48891035 Q 8.798069091796874 1.49978535 8.798069091796874 1.52228535 L 8.798069091796874 1.75028535 Q 8.798069091796874 1.77353535 8.802194091796874 1.7840353500000001 M 8.998341430664063 1.7952853500000001 Q 8.957466430664061 1.77053535 8.934966430664062 1.72853535 Q 8.912466430664061 1.68653535 8.912466430664061 1.6377853500000001 Q 8.912466430664061 1.5792853500000001 8.942841430664062 1.53691035 Q 8.973216430664062 1.49453535 9.020091430664062 1.47278535 Q 9.066966430664062 1.4510353500000002 9.115716430664062 1.4510353500000002 Q 9.168216430664062 1.4510353500000002 9.208341430664062 1.47691035 Q 9.248466430664061 1.50278535 9.269841430664062 1.5440353500000001 Q 9.291216430664061 1.58528535 9.291216430664061 1.63028535 Q 9.291216430664061 1.68053535 9.264216430664062 1.72441035 Q 9.237216430664063 1.76828535 9.191466430664061 1.79416035 Q 9.145716430664061 1.82003535 9.091716430664063 1.82003535 Q 9.039216430664062 1.82003535 8.998341430664063 1.7952853500000001 M 9.204591430664061 1.76303535 Q 9.239466430664061 1.72178535 9.239466430664061 1.6490353500000001 Q 9.239466430664061 1.59878535 9.221841430664062 1.55753535 Q 9.204216430664061 1.51628535 9.170466430664062 1.49153535 Q 9.136716430664062 1.46678535 9.090216430664062 1.46678535 Q 9.030216430664062 1.46678535 8.997216430664063 1.50691035 Q 8.964216430664061 1.54703535 8.964216430664061 1.61903535 Q 8.964216430664061 1.67078535 8.981841430664062 1.71278535 Q 8.999466430664063 1.7547853500000001 9.032841430664062 1.77953535 Q 9.066216430664062 1.80428535 9.111216430664062 1.80428535 Q 9.169716430664062 1.80428535 9.204591430664061 1.76303535 M 9.759611206054688 1.80653535 Q 9.759611206054688 1.81103535 9.758111206054688 1.81103535 Q 9.739361206054687 1.81103535 9.728861206054686 1.81028535 L 9.689861206054687 1.80953535 L 9.642611206054687 1.81028535 Q 9.631361206054686 1.81103535 9.612611206054687 1.81103535 Q 9.611111206054687 1.81103535 9.611111206054687 1.80653535 Q 9.611111206054687 1.8020353500000001 9.612611206054687 1.8020353500000001 Q 9.636611206054686 1.8020353500000001 9.648236206054687 1.79753535 Q 9.659861206054687 1.79303535 9.663986206054688 1.78216035 Q 9.668111206054688 1.77128535 9.668111206054688 1.7487853500000001 L 9.668111206054688 1.59953535 Q 9.668111206054688 1.52753535 9.642986206054687 1.49941035 Q 9.617861206054688 1.47128535 9.570611206054688 1.47128535 Q 9.536861206054686 1.47128535 9.507986206054687 1.4851603500000001 Q 9.479111206054688 1.49903535 9.446861206054686 1.53353535 L 9.446861206054686 1.7487853500000001 Q 9.446861206054686 1.77128535 9.450986206054687 1.78216035 Q 9.455111206054687 1.79303535 9.466361206054687 1.79753535 Q 9.477611206054688 1.8020353500000001 9.500861206054687 1.8020353500000001 Q 9.503111206054687 1.8020353500000001 9.503111206054687 1.80653535 Q 9.503111206054687 1.81103535 9.500861206054687 1.81103535 Q 9.480611206054688 1.81103535 9.468611206054687 1.81028535 L 9.422861206054687 1.80953535 L 9.378611206054687 1.81028535 Q 9.366611206054687 1.81103535 9.345611206054686 1.81103535 Q 9.344111206054686 1.81103535 9.344111206054686 1.80653535 Q 9.344111206054686 1.8020353500000001 9.345611206054686 1.8020353500000001 Q 9.369611206054687 1.8020353500000001 9.381236206054687 1.79791035 Q 9.392861206054686 1.79378535 9.397361206054686 1.78328535 Q 9.401861206054686 1.7727853500000001 9.401861206054686 1.75028535 L 9.401861206054686 1.5207853500000001 Q 9.401861206054686 1.49828535 9.397736206054686 1.48778535 Q 9.393611206054686 1.47728535 9.382361206054687 1.4731603500000001 Q 9.371111206054687 1.46903535 9.347861206054686 1.46903535 Q 9.345611206054686 1.46903535 9.345611206054686 1.46453535 Q 9.345611206054686 1.46003535 9.347861206054686 1.46003535 L 9.396611206054686 1.46078535 L 9.433361206054688 1.46003535 Q 9.442361206054686 1.46003535 9.444611206054686 1.4626603500000002 Q 9.446861206054686 1.46528535 9.446861206054686 1.4742853500000002 L 9.446861206054686 1.51853535 Q 9.482111206054688 1.48328535 9.516611206054687 1.4671603500000001 Q 9.551111206054687 1.4510353500000002 9.590111206054686 1.4510353500000002 Q 9.645611206054687 1.4510353500000002 9.679361206054686 1.48141035 Q 9.713111206054688 1.51178535 9.713111206054688 1.57478535 L 9.713111206054688 1.75028535 Q 9.713111206054688 1.7727853500000001 9.716486206054688 1.7836603500000001 Q 9.719861206054686 1.79453535 9.729236206054686 1.79828535 Q 9.738611206054687 1.8020353500000001 9.758111206054688 1.8020353500000001 Q 9.759611206054688 1.8020353500000001 9.759611206054688 1.80653535" fill="#ff6b00" fill-rule="nonzero"></path></g></g><defs><clipPath id="SvgjsClipPath64830"><path d=" M 10.167099853515625 -2.8234577427694316 h 6.7940461532635466 v 7.457950835538863 h -6.7940461532635466 Z"></path></clipPath><clipPath id="SvgjsClipPath648287b7801ac-4d09-4995-a137-1fb70be27329"><path d=" M 10.167099853515625 -2.8234577427694316 L 16.96114600677917 -2.8234577427694316 L 16.96114600677917 4.634493092769432 L 10.167099853515625 4.634493092769432 Z"></path></clipPath></defs></svg>